<svg width="155" height="45" viewBox="0 0 155 45" fill="none" xmlns="http://www.w3.org/2000/svg">
<path d="M153.303 39.3989C153.303 41.7723 151.341 43.6947 148.913 43.6947H5.25208C2.82583 43.6947 0.856445 41.7723 0.856445 39.3989V5.14164C0.856445 2.76944 2.82583 0.840271 5.25208 0.840271H148.912C151.341 0.840271 153.302 2.76944 153.302 5.14164L153.303 39.3989Z" fill="black"/>
<path d="M148.45 0.892066C151.094 0.892066 153.245 2.98939 153.245 5.56685V38.9681C153.245 41.5456 151.094 43.6429 148.45 43.6429H5.70962C3.06606 43.6429 0.914966 41.5456 0.914966 38.9681V5.56685C0.914966 2.98939 3.06606 0.892066 5.70962 0.892066H148.45ZM148.45 -2.23169e-05H5.70962C2.57075 -2.23169e-05 0 2.50647 0 5.56685V38.9681C0 42.0285 2.57075 44.535 5.70962 44.535H148.45C151.589 44.535 154.16 42.0285 154.16 38.9681V5.56685C154.16 2.50647 151.589 -2.23169e-05 148.45 -2.23169e-05Z" fill="#A6A6A6"/>
<path d="M34.4039 22.027C34.3708 18.4386 37.4174 16.6928 37.5567 16.6115C35.8313 14.1587 33.1569 13.8236 32.2171 13.7969C29.9709 13.5664 27.7921 15.1073 26.6479 15.1073C25.4809 15.1073 23.7189 13.8192 21.8199 13.857C19.3762 13.8938 17.09 15.2732 15.8362 17.4154C13.2486 21.7831 15.1785 28.2017 17.6576 31.7323C18.8977 33.4613 20.3468 35.3919 22.2435 35.324C24.0992 35.2494 24.7923 34.1705 27.0316 34.1705C29.2504 34.1705 29.9013 35.324 31.8357 35.2806C33.8272 35.2494 35.081 33.5437 36.2778 31.7991C37.7109 29.8173 38.2864 27.8655 38.3093 27.7653C38.2624 27.7497 34.4416 26.3279 34.4039 22.027Z" fill="white"/>
<path d="M30.7497 11.4744C31.7478 10.2575 32.4306 8.6019 32.2411 6.92181C30.7965 6.98416 28.99 7.89602 27.9497 9.08622C27.0293 10.135 26.2072 11.8541 26.4196 13.4707C28.0422 13.5887 29.7083 12.6724 30.7497 11.4744Z" fill="white"/>
<path d="M61.2585 35.0758H58.6651L57.2446 30.7236H52.3069L50.9537 35.0758H48.429L53.321 20.259H56.3425L61.2585 35.0758ZM56.8164 28.8976L55.5317 25.0287C55.3958 24.6334 55.1412 23.7026 54.7655 22.2374H54.7198C54.5702 22.8676 54.3293 23.7984 53.9981 25.0287L52.7363 28.8976H56.8164Z" fill="white"/>
<path d="M73.839 29.6024C73.839 31.4194 73.3354 32.8557 72.3282 33.9101C71.4261 34.8486 70.3059 35.3174 68.9687 35.3174C67.5253 35.3174 66.4885 34.8119 65.857 33.801H65.8113V39.4291H63.3767V27.909C63.3767 26.7666 63.3459 25.5943 63.2865 24.3918H65.4276L65.5635 26.0853H65.6092C66.4211 24.8093 67.6532 24.1725 69.3067 24.1725C70.5994 24.1725 71.6785 24.6702 72.5418 25.6666C73.4074 26.6642 73.839 27.9758 73.839 29.6024ZM71.3588 29.6893C71.3588 28.6494 71.1189 27.7921 70.6371 27.1174C70.1106 26.4137 69.4038 26.0619 68.5176 26.0619C67.917 26.0619 67.3712 26.2578 66.8836 26.6442C66.3948 27.0339 66.0751 27.5427 65.9255 28.1728C65.8501 28.4668 65.8124 28.7073 65.8124 28.8965V30.6779C65.8124 31.4551 66.0568 32.1108 66.5455 32.6464C67.0343 33.1819 67.6692 33.4491 68.4503 33.4491C69.3672 33.4491 70.0809 33.104 70.5914 32.4159C71.103 31.7267 71.3588 30.8182 71.3588 29.6893Z" fill="white"/>
<path d="M86.4425 29.6024C86.4425 31.4194 85.9389 32.8557 84.9305 33.9101C84.0296 34.8486 82.9093 35.3174 81.5721 35.3174C80.1288 35.3174 79.0919 34.8119 78.4616 33.801H78.4159V39.4291H75.9813V27.909C75.9813 26.7666 75.9505 25.5943 75.8911 24.3918H78.0322L78.1681 26.0853H78.2138C79.0245 24.8093 80.2567 24.1725 81.9113 24.1725C83.2028 24.1725 84.2819 24.6702 85.1475 25.6666C86.0097 26.6642 86.4425 27.9758 86.4425 29.6024ZM83.9622 29.6893C83.9622 28.6494 83.7212 27.7921 83.2394 27.1174C82.7129 26.4137 82.0084 26.0619 81.1211 26.0619C80.5193 26.0619 79.9746 26.2578 79.4859 26.6442C78.9971 27.0339 78.6785 27.5427 78.5289 28.1728C78.4547 28.4668 78.4159 28.7073 78.4159 28.8965V30.6779C78.4159 31.4551 78.6602 32.1108 79.1467 32.6464C79.6354 33.1808 80.2704 33.4491 81.0537 33.4491C81.9707 33.4491 82.6844 33.104 83.1948 32.4159C83.7064 31.7267 83.9622 30.8182 83.9622 29.6893Z" fill="white"/>
<path d="M100.534 30.9207C100.534 32.181 100.085 33.2064 99.184 33.998C98.194 34.8631 96.8157 35.2951 95.0445 35.2951C93.4093 35.2951 92.0984 34.9878 91.106 34.3721L91.6702 32.3937C92.739 33.0238 93.9118 33.34 95.1896 33.34C96.1065 33.34 96.8202 33.1374 97.333 32.7343C97.8434 32.3313 98.098 31.7902 98.098 31.1155C98.098 30.5143 97.8879 30.0077 97.4666 29.5969C97.0475 29.186 96.3475 28.8041 95.37 28.4512C92.7093 27.4837 91.3801 26.0663 91.3801 24.2026C91.3801 22.9845 91.846 21.9858 92.779 21.2087C93.7085 20.4304 94.9486 20.0419 96.4993 20.0419C97.8822 20.0419 99.031 20.2768 99.948 20.7455L99.3393 22.6806C98.4829 22.2263 97.5145 21.9992 96.4308 21.9992C95.5744 21.9992 94.9052 22.2052 94.4256 22.6149C94.0202 22.9812 93.817 23.4276 93.817 23.9565C93.817 24.5421 94.0488 25.0265 94.5147 25.4072C94.9201 25.7591 95.6566 26.1398 96.7255 26.5507C98.033 27.0639 98.9933 27.664 99.6111 28.3521C100.227 29.0379 100.534 29.8964 100.534 30.9207Z" fill="white"/>
<path d="M108.583 26.1732H105.9V31.3604C105.9 32.6798 106.372 33.3389 107.32 33.3389C107.755 33.3389 108.116 33.3022 108.402 33.2287L108.469 35.0312C107.989 35.206 107.358 35.294 106.576 35.294C105.614 35.294 104.863 35.0078 104.32 34.4367C103.78 33.8644 103.508 32.9047 103.508 31.5564V26.171H101.91V24.3896H103.508V22.4334L105.9 21.7297V24.3896H108.583V26.1732Z" fill="white"/>
<path d="M120.691 29.6459C120.691 31.2881 120.209 32.6364 119.248 33.6908C118.239 34.7763 116.901 35.3174 115.233 35.3174C113.625 35.3174 112.345 34.7975 111.39 33.7576C110.435 32.7177 109.958 31.405 109.958 29.8229C109.958 28.1673 110.449 26.8112 111.435 25.7569C112.418 24.7014 113.745 24.1736 115.413 24.1736C117.021 24.1736 118.315 24.6936 119.291 25.7346C120.225 26.7444 120.691 28.0482 120.691 29.6459ZM118.165 29.7227C118.165 28.7374 117.949 27.8923 117.512 27.1876C117.001 26.3347 116.272 25.9094 115.326 25.9094C114.348 25.9094 113.604 26.3358 113.094 27.1876C112.656 27.8934 112.441 28.7518 112.441 29.7672C112.441 30.7526 112.656 31.5976 113.094 32.3013C113.62 33.1541 114.356 33.5794 115.305 33.5794C116.234 33.5794 116.964 33.1452 117.49 32.279C117.939 31.5609 118.165 30.7069 118.165 29.7227Z" fill="white"/>
<path d="M128.605 26.4794C128.364 26.436 128.107 26.4137 127.837 26.4137C126.981 26.4137 126.318 26.7288 125.852 27.3601C125.447 27.9168 125.244 28.6204 125.244 29.4699V35.0758H122.81L122.833 27.7564C122.833 26.525 122.802 25.4039 122.742 24.3929H124.862L124.952 26.4371H125.019C125.276 25.7346 125.681 25.169 126.236 24.7448C126.779 24.3629 127.364 24.1725 127.996 24.1725C128.221 24.1725 128.424 24.1881 128.605 24.2159V26.4794Z" fill="white"/>
<path d="M139.493 29.2283C139.493 29.6537 139.464 30.0122 139.404 30.305H132.1C132.128 31.3605 132.481 32.1677 133.16 32.7243C133.775 33.222 134.571 33.4714 135.549 33.4714C136.63 33.4714 137.617 33.3033 138.504 32.9659L138.885 34.6137C137.848 35.0546 136.624 35.274 135.212 35.274C133.512 35.274 132.179 34.7863 131.208 33.8121C130.24 32.8379 129.754 31.5297 129.754 29.8886C129.754 28.2775 130.205 26.9359 131.109 25.8659C132.054 24.7236 133.332 24.1525 134.94 24.1525C136.519 24.1525 137.715 24.7236 138.527 25.8659C139.17 26.7734 139.493 27.8956 139.493 29.2283ZM137.171 28.6126C137.187 27.909 137.028 27.3011 136.698 26.7878C136.277 26.1276 135.63 25.798 134.758 25.798C133.962 25.798 133.315 26.1198 132.82 26.7656C132.415 27.2788 132.174 27.8945 132.1 28.6115H137.171V28.6126Z" fill="white"/>
<path d="M56.0113 11.1438C56.0113 12.4542 55.6082 13.4407 54.8032 14.1031C54.0575 14.7144 52.9978 15.0206 51.6252 15.0206C50.9446 15.0206 50.3622 14.9916 49.8746 14.9337V7.77361C50.5107 7.67341 51.1958 7.62219 51.9358 7.62219C53.2433 7.62219 54.2288 7.89942 54.8934 8.45388C55.6379 9.08071 56.0113 9.97698 56.0113 11.1438ZM54.7495 11.1761C54.7495 10.3266 54.5188 9.67526 54.0575 9.221C53.5962 8.76785 52.9224 8.54073 52.0352 8.54073C51.6583 8.54073 51.3374 8.56522 51.0714 8.61644V14.0597C51.2187 14.082 51.4882 14.092 51.8799 14.092C52.7957 14.092 53.5025 13.8437 54.0004 13.3472C54.4983 12.8506 54.7495 12.1269 54.7495 11.1761Z" fill="white"/>
<path d="M62.7019 12.2883C62.7019 13.0955 62.4655 13.7569 61.9928 14.2757C61.4972 14.809 60.8406 15.0751 60.0207 15.0751C59.2304 15.0751 58.6012 14.8201 58.1319 14.308C57.6637 13.797 57.4296 13.1523 57.4296 12.3752C57.4296 11.5624 57.6706 10.8955 58.1547 10.3778C58.6389 9.86006 59.2898 9.60065 60.1097 9.60065C60.8999 9.60065 61.5348 9.85561 62.0156 10.3666C62.4724 10.8632 62.7019 11.5045 62.7019 12.2883ZM61.4606 12.3262C61.4606 11.8419 61.3533 11.4266 61.1397 11.0803C60.8885 10.6617 60.5311 10.4524 60.0663 10.4524C59.5856 10.4524 59.2202 10.6617 58.9689 11.0803C58.7543 11.4266 58.6481 11.8486 58.6481 12.3473C58.6481 12.8317 58.7554 13.2469 58.9689 13.5932C59.2282 14.0118 59.589 14.2212 60.0549 14.2212C60.5117 14.2212 60.8702 14.0085 61.1283 13.5821C61.3498 13.2291 61.4606 12.8105 61.4606 12.3262Z" fill="white"/>
<path d="M71.6728 9.70752L69.9885 14.956H68.8922L68.1945 12.6769C68.0175 12.108 67.8736 11.5424 67.7617 10.9812H67.74C67.6361 11.5579 67.4922 12.1224 67.3072 12.6769L66.5661 14.956H65.4573L63.8735 9.70752H65.1033L65.712 12.2026C65.8593 12.7927 65.9803 13.3549 66.0774 13.8871H66.0991C66.1881 13.4485 66.3355 12.8895 66.5433 12.2137L67.3072 9.70863H68.2824L69.0144 12.1603C69.1914 12.7582 69.3353 13.3338 69.4461 13.8882H69.4792C69.5602 13.3483 69.6824 12.7726 69.8446 12.1603L70.4978 9.70863H71.6728V9.70752Z" fill="white"/>
<path d="M77.8769 14.956H76.6802V11.9499C76.6802 11.0235 76.3193 10.5604 75.5953 10.5604C75.2402 10.5604 74.9536 10.6873 74.7309 10.9422C74.5105 11.1972 74.3986 11.4978 74.3986 11.8419V14.9549H73.2019V11.2072C73.2019 10.7463 73.187 10.2464 73.1585 9.70529H74.2102L74.2661 10.5258H74.2993C74.4386 10.2709 74.6464 10.0605 74.9193 9.89233C75.2436 9.69638 75.6068 9.59729 76.0041 9.59729C76.5066 9.59729 76.9245 9.75539 77.2568 10.0727C77.6702 10.4613 77.8769 11.0413 77.8769 11.8118V14.956Z" fill="white"/>
<path d="M81.1771 14.956H79.9815V7.29932H81.1771V14.956Z" fill="white"/>
<path d="M88.2227 12.2883C88.2227 13.0955 87.9863 13.7569 87.5136 14.2757C87.018 14.809 86.3602 15.0751 85.5415 15.0751C84.7501 15.0751 84.1209 14.8201 83.6527 14.308C83.1845 13.797 82.9504 13.1523 82.9504 12.3752C82.9504 11.5624 83.1914 10.8955 83.6756 10.3778C84.1597 9.86006 84.8106 9.60065 85.6294 9.60065C86.4207 9.60065 87.0545 9.85561 87.5364 10.3666C87.9932 10.8632 88.2227 11.5045 88.2227 12.2883ZM86.9803 12.3262C86.9803 11.8419 86.8729 11.4266 86.6594 11.0803C86.4093 10.6617 86.0508 10.4524 85.5871 10.4524C85.1052 10.4524 84.7398 10.6617 84.4898 11.0803C84.2751 11.4266 84.1689 11.8486 84.1689 12.3473C84.1689 12.8317 84.2762 13.2469 84.4898 13.5932C84.749 14.0118 85.1098 14.2212 85.5757 14.2212C86.0325 14.2212 86.3899 14.0085 86.648 13.5821C86.8707 13.2291 86.9803 12.8105 86.9803 12.3262Z" fill="white"/>
<path d="M94.0145 14.956H92.94L92.8509 14.3514H92.8178C92.4501 14.8335 91.926 15.0751 91.2454 15.0751C90.7372 15.0751 90.3261 14.9159 90.0167 14.5997C89.7358 14.3124 89.5953 13.9551 89.5953 13.5309C89.5953 12.8896 89.8694 12.4008 90.4209 12.0623C90.9713 11.7239 91.7455 11.558 92.7424 11.5658V11.4678C92.7424 10.7764 92.3702 10.4312 91.6245 10.4312C91.0935 10.4312 90.6253 10.5615 90.2211 10.8198L89.9778 10.0538C90.478 9.75207 91.0958 9.60065 91.8243 9.60065C93.2312 9.60065 93.9369 10.3243 93.9369 11.7717V13.7045C93.9369 14.2289 93.9632 14.6465 94.0145 14.956ZM92.7721 13.1523V12.3429C91.4521 12.3206 90.792 12.6736 90.792 13.4006C90.792 13.6745 90.8674 13.8793 91.0216 14.0163C91.1757 14.1532 91.3721 14.2212 91.6062 14.2212C91.8689 14.2212 92.1144 14.1399 92.3382 13.9784C92.5632 13.8159 92.7013 13.6099 92.7527 13.3572C92.7653 13.3004 92.7721 13.2314 92.7721 13.1523Z" fill="white"/>
<path d="M100.815 14.956H99.7527L99.6968 14.1132H99.6636C99.3245 14.7545 98.7467 15.0751 97.9348 15.0751C97.2862 15.0751 96.746 14.8268 96.3178 14.3303C95.8896 13.8337 95.6761 13.1891 95.6761 12.3975C95.6761 11.548 95.9079 10.8599 96.3738 10.3344C96.8248 9.84449 97.3775 9.59955 98.0353 9.59955C98.7581 9.59955 99.264 9.8367 99.5517 10.3121H99.5746V7.29932H100.772V13.542C100.772 14.053 100.786 14.524 100.815 14.956ZM99.5746 12.7426V11.8675C99.5746 11.7161 99.5632 11.5936 99.5415 11.5001C99.4741 11.2195 99.3291 10.9835 99.1087 10.7931C98.886 10.6027 98.6176 10.5069 98.3082 10.5069C97.8617 10.5069 97.5123 10.6795 97.2553 11.0258C97.0007 11.372 96.8716 11.8141 96.8716 12.354C96.8716 12.8729 96.9938 13.2937 97.2393 13.6177C97.4986 13.9629 97.848 14.1354 98.2853 14.1354C98.6782 14.1354 98.9922 13.9918 99.2309 13.7034C99.4615 13.4374 99.5746 13.1167 99.5746 12.7426Z" fill="white"/>
<path d="M111.05 12.2883C111.05 13.0955 110.813 13.7569 110.341 14.2757C109.845 14.809 109.19 15.0751 108.369 15.0751C107.579 15.0751 106.95 14.8201 106.48 14.308C106.012 13.797 105.777 13.1523 105.777 12.3752C105.777 11.5624 106.018 10.8955 106.503 10.3778C106.987 9.86006 107.638 9.60065 108.459 9.60065C109.248 9.60065 109.884 9.85561 110.363 10.3666C110.82 10.8632 111.05 11.5045 111.05 12.2883ZM109.81 12.3262C109.81 11.8419 109.702 11.4266 109.489 11.0803C109.236 10.6617 108.88 10.4524 108.414 10.4524C107.935 10.4524 107.569 10.6617 107.317 11.0803C107.102 11.4266 106.996 11.8486 106.996 12.3473C106.996 12.8317 107.103 13.2469 107.317 13.5932C107.576 14.0118 107.937 14.2212 108.403 14.2212C108.86 14.2212 109.219 14.0085 109.477 13.5821C109.698 13.2291 109.81 12.8105 109.81 12.3262Z" fill="white"/>
<path d="M117.484 14.956H116.289V11.9499C116.289 11.0235 115.928 10.5604 115.203 10.5604C114.848 10.5604 114.561 10.6873 114.34 10.9422C114.118 11.1972 114.007 11.4978 114.007 11.8419V14.9549H112.809V11.2072C112.809 10.7463 112.796 10.2464 112.767 9.70529H113.818L113.874 10.5258H113.907C114.047 10.2709 114.255 10.0605 114.527 9.89233C114.852 9.69638 115.214 9.59729 115.613 9.59729C116.114 9.59729 116.532 9.75539 116.864 10.0727C117.279 10.4613 117.484 11.0413 117.484 11.8118V14.956Z" fill="white"/>
<path d="M125.538 10.5816H124.221V13.1312C124.221 13.7792 124.455 14.1032 124.918 14.1032C125.133 14.1032 125.311 14.0853 125.452 14.0486L125.483 14.9337C125.246 15.0206 124.936 15.064 124.553 15.064C124.08 15.064 123.713 14.9237 123.446 14.6431C123.179 14.3626 123.047 13.8905 123.047 13.228V10.5816H122.26V9.70755H123.047V8.7456L124.22 8.40045V9.70644H125.537V10.5816H125.538Z" fill="white"/>
<path d="M131.874 14.956H130.676V11.9722C130.676 11.0313 130.315 10.5604 129.592 10.5604C129.037 10.5604 128.658 10.8332 128.45 11.3787C128.415 11.4934 128.394 11.6337 128.394 11.7985V14.9549H127.199V7.29932H128.394V10.4624H128.417C128.794 9.8868 129.334 9.59955 130.034 9.59955C130.53 9.59955 130.94 9.75765 131.265 10.075C131.671 10.4702 131.874 11.0581 131.874 11.8352V14.956Z" fill="white"/>
<path d="M138.409 12.0835C138.409 12.2928 138.393 12.4687 138.365 12.6123H134.775C134.791 13.1312 134.963 13.5264 135.295 13.8003C135.599 14.0452 135.99 14.1677 136.47 14.1677C137.001 14.1677 137.485 14.0853 137.921 13.9194L138.109 14.73C137.598 14.946 136.998 15.054 136.302 15.054C135.469 15.054 134.812 14.8146 134.337 14.3358C133.86 13.8571 133.623 13.2147 133.623 12.4086C133.623 11.617 133.844 10.9579 134.288 10.4323C134.751 9.87121 135.378 9.59064 136.17 9.59064C136.944 9.59064 137.532 9.87121 137.929 10.4323C138.25 10.8777 138.409 11.4288 138.409 12.0835ZM137.267 11.7818C137.276 11.4355 137.197 11.1371 137.035 10.8855C136.827 10.5615 136.511 10.3989 136.083 10.3989C135.692 10.3989 135.374 10.557 135.131 10.8744C134.932 11.1271 134.814 11.4288 134.775 11.7818H137.267Z" fill="white"/>
</svg>
