<svg width="154" height="45" viewBox="0 0 154 45" fill="none" xmlns="http://www.w3.org/2000/svg">
<path d="M148.246 45H5.70177C2.56722 45 0 42.4935 0 39.4331V6.03188C0 2.9715 2.56722 0.465009 5.70177 0.465009H148.246C151.38 0.465009 153.948 2.9715 153.948 6.03188V39.4331C153.948 42.4935 151.38 45 148.246 45Z" fill="black"/>
<path d="M148.246 1.3571C150.886 1.3571 153.034 3.45442 153.034 6.03188V39.4331C153.034 42.0106 150.886 44.1079 148.246 44.1079H5.70177C3.06185 44.1079 0.913708 42.0106 0.913708 39.4331V6.03188C0.913708 3.45442 3.06185 1.3571 5.70177 1.3571H148.246ZM148.246 0.465009H5.70177C2.56722 0.465009 0 2.9715 0 6.03188V39.4331C0 42.4935 2.56722 45 5.70177 45H148.246C151.38 45 153.948 42.4935 153.948 39.4331V6.03188C153.948 2.9715 151.38 0.465009 148.246 0.465009Z" fill="#A6A6A6"/>
<path d="M54.0727 11.8702C54.0727 12.7998 53.7876 13.5444 53.226 14.0997C52.5803 14.758 51.7393 15.0892 50.7087 15.0892C49.7237 15.0892 48.8827 14.7524 48.1928 14.0886C47.5014 13.415 47.1565 12.5883 47.1565 11.5988C47.1565 10.6093 47.5014 9.78258 48.1928 9.11455C48.8827 8.44513 49.7237 8.10834 50.7087 8.10834C51.199 8.10834 51.6666 8.20715 52.1127 8.39086C52.5575 8.57595 52.9195 8.82646 53.1818 9.13543L52.586 9.72273C52.1284 9.19527 51.5055 8.93502 50.7087 8.93502C49.9903 8.93502 49.3673 9.17996 48.8385 9.67402C48.3154 10.1695 48.0531 10.8111 48.0531 11.5988C48.0531 12.3865 48.3154 13.0336 48.8385 13.5291C49.3673 14.0176 49.9903 14.2681 50.7087 14.2681C51.4713 14.2681 52.1127 14.0176 52.6188 13.5235C52.9523 13.1965 53.1419 12.7455 53.1918 12.1694H50.7087V11.365H54.0214C54.0613 11.5389 54.0727 11.7073 54.0727 11.8702Z" fill="white" stroke="white" stroke-width="0.16" stroke-miterlimit="10"/>
<path d="M59.3283 9.08114H56.2166V11.1965H59.0218V12.001H56.2166V14.1164H59.3283V14.9361H55.3356V8.26141H59.3283V9.08114Z" fill="white" stroke="white" stroke-width="0.16" stroke-miterlimit="10"/>
<path d="M63.0373 14.9361H62.1563V9.08114H60.2477V8.26141H64.9474V9.08114H63.0373V14.9361Z" fill="white" stroke="white" stroke-width="0.16" stroke-miterlimit="10"/>
<path d="M68.3485 14.9361V8.26141H69.228V14.9361H68.3485Z" fill="white" stroke="white" stroke-width="0.16" stroke-miterlimit="10"/>
<path d="M73.1266 14.9361H72.2528V9.08114H70.337V8.26141H75.0423V9.08114H73.1266V14.9361Z" fill="white" stroke="white" stroke-width="0.16" stroke-miterlimit="10"/>
<path d="M83.94 14.0774C83.2658 14.7524 82.4304 15.0892 81.4341 15.0892C80.432 15.0892 79.5967 14.7524 78.9224 14.0774C78.2496 13.4038 77.9146 12.5771 77.9146 11.5988C77.9146 10.6204 78.2496 9.79371 78.9224 9.12012C79.5967 8.44513 80.432 8.10834 81.4341 8.10834C82.4247 8.10834 83.2601 8.44513 83.9343 9.12568C84.6128 9.80484 84.9478 10.626 84.9478 11.5988C84.9478 12.5771 84.6128 13.4038 83.94 14.0774ZM79.5739 13.5179C80.0813 14.0176 80.6985 14.2681 81.4341 14.2681C82.1639 14.2681 82.7868 14.0176 83.2886 13.5179C83.7946 13.0183 84.0512 12.3767 84.0512 11.5988C84.0512 10.8208 83.7946 10.1792 83.2886 9.67959C82.7868 9.17996 82.1639 8.92945 81.4341 8.92945C80.6985 8.92945 80.0813 9.17996 79.5739 9.67959C79.0678 10.1792 78.8112 10.8208 78.8112 11.5988C78.8112 12.3767 79.0678 13.0183 79.5739 13.5179Z" fill="white" stroke="white" stroke-width="0.16" stroke-miterlimit="10"/>
<path d="M86.1836 14.9361V8.26141H87.2527L90.5768 13.4525H90.6153L90.5768 12.1694V8.26141H91.4563V14.9361H90.5383L87.0574 9.48891H87.0189L87.0574 10.7776V14.9361H86.1836Z" fill="white" stroke="white" stroke-width="0.16" stroke-miterlimit="10"/>
<path d="M77.698 24.6837C75.0196 24.6837 72.8315 26.6739 72.8315 29.4197C72.8315 32.1433 75.0196 34.1544 77.698 34.1544C80.3821 34.1544 82.5701 32.1433 82.5701 29.4197C82.5701 26.6739 80.3821 24.6837 77.698 24.6837ZM77.698 32.2895C76.2283 32.2895 74.964 31.1051 74.964 29.4197C74.964 27.7121 76.2283 26.5486 77.698 26.5486C79.1676 26.5486 80.4377 27.7121 80.4377 29.4197C80.4377 31.1051 79.1676 32.2895 77.698 32.2895ZM67.0798 24.6837C64.3957 24.6837 62.2134 26.6739 62.2134 29.4197C62.2134 32.1433 64.3957 34.1544 67.0798 34.1544C69.7625 34.1544 71.9463 32.1433 71.9463 29.4197C71.9463 26.6739 69.7625 24.6837 67.0798 24.6837ZM67.0798 32.2895C65.6088 32.2895 64.3401 31.1051 64.3401 29.4197C64.3401 27.7121 65.6088 26.5486 67.0798 26.5486C68.5495 26.5486 69.8138 27.7121 69.8138 29.4197C69.8138 31.1051 68.5495 32.2895 67.0798 32.2895ZM54.4447 26.1353V28.1477H59.3668C59.2228 29.2722 58.8379 30.0989 58.2478 30.6751C57.5294 31.3709 56.4104 32.1433 54.4447 32.1433C51.4157 32.1433 49.0437 29.7565 49.0437 26.7991C49.0437 23.8417 51.4157 21.4549 54.4447 21.4549C56.0826 21.4549 57.2742 22.0798 58.1537 22.8898L59.6063 21.4716C58.3761 20.3249 56.7397 19.4439 54.4447 19.4439C50.291 19.4439 46.8001 22.7437 46.8001 26.7991C46.8001 30.8546 50.291 34.1544 54.4447 34.1544C56.6898 34.1544 58.3761 33.4362 59.7018 32.0891C61.0602 30.7628 61.4836 28.8978 61.4836 27.392C61.4836 26.9244 61.4437 26.4944 61.3724 26.1353H54.4447ZM106.111 27.6954C105.711 26.6363 104.475 24.6837 101.958 24.6837C99.463 24.6837 97.3861 26.6029 97.3861 29.4197C97.3861 32.0724 99.4416 34.1544 102.197 34.1544C104.425 34.1544 105.711 32.8281 106.24 32.0557L104.586 30.9799C104.034 31.7676 103.283 32.2895 102.197 32.2895C101.118 32.2895 100.344 31.8065 99.8479 30.8546L106.335 28.234L106.111 27.6954ZM99.4972 29.2722C99.4416 27.4463 100.95 26.5111 102.03 26.5111C102.877 26.5111 103.595 26.9244 103.835 27.5159L99.4972 29.2722ZM94.2245 33.8663H96.357V19.9491H94.2245V33.8663ZM90.7322 25.7386H90.6609C90.182 25.1847 89.2683 24.6837 88.1108 24.6837C85.6819 24.6837 83.461 26.7657 83.461 29.4351C83.461 32.0891 85.6819 34.1544 88.1108 34.1544C89.2683 34.1544 90.182 33.6492 90.6609 33.0786H90.7322V33.7577C90.7322 35.5684 89.7415 36.5412 88.1436 36.5412C86.8407 36.5412 86.0325 35.6226 85.699 34.8502L83.8445 35.6059C84.379 36.8613 85.7945 38.4061 88.1436 38.4061C90.6438 38.4061 92.7535 36.9698 92.7535 33.4752V24.9718H90.7322V25.7386ZM88.2933 32.2895C86.8236 32.2895 85.5935 31.0884 85.5935 29.4351C85.5935 27.7664 86.8236 26.5486 88.2933 26.5486C89.7415 26.5486 90.8833 27.7664 90.8833 29.4351C90.8833 31.0884 89.7415 32.2895 88.2933 32.2895ZM116.095 19.9491H110.995V33.8663H113.122V28.5931H116.095C118.457 28.5931 120.773 26.9244 120.773 24.2704C120.773 21.6178 118.451 19.9491 116.095 19.9491ZM116.151 26.6572H113.122V21.885H116.151C117.739 21.885 118.645 23.1723 118.645 24.2704C118.645 25.3476 117.739 26.6572 116.151 26.6572ZM129.298 24.6573C127.761 24.6573 126.163 25.3197 125.506 26.788L127.393 27.5604C127.799 26.788 128.546 26.5375 129.336 26.5375C130.439 26.5375 131.558 27.1846 131.575 28.3272V28.4734C131.19 28.2563 130.367 27.9348 129.353 27.9348C127.32 27.9348 125.249 29.0273 125.249 31.0661C125.249 32.931 126.914 34.1321 128.786 34.1321C130.217 34.1321 131.007 33.5017 131.503 32.7682H131.575V33.844H133.629V28.5054C133.629 26.0379 131.742 24.6573 129.298 24.6573ZM129.041 32.2839C128.345 32.2839 127.376 31.9471 127.376 31.1051C127.376 30.0279 128.585 29.6146 129.631 29.6146C130.568 29.6146 131.007 29.8164 131.575 30.0822C131.409 31.3709 130.273 32.2839 129.041 32.2839ZM141.113 24.9621L138.668 30.9952H138.596L136.068 24.9621H133.775L137.572 33.3931L135.406 38.0846H137.628L143.479 24.9621H141.113ZM121.942 33.8663H124.075V19.9491H121.942V33.8663Z" fill="white"/>
<path d="M11.8996 8.85844C11.5646 9.20081 11.3708 9.73383 11.3708 10.4241V35.0464C11.3708 35.7367 11.5646 36.2697 11.8996 36.6121L11.9823 36.6873L26.1141 22.8953V22.5697L11.9823 8.77772L11.8996 8.85844Z" fill="url(#paint0_linear_1_358)"/>
<path d="M30.8195 27.4949L26.1141 22.8952V22.5696L30.8252 17.97L30.9306 18.0298L36.5098 21.1292C38.102 22.0087 38.102 23.4561 36.5098 24.3412L30.9306 27.435L30.8195 27.4949Z" fill="url(#paint1_linear_1_358)"/>
<path d="M30.9307 27.4351L26.1141 22.7325L11.8996 36.6121C12.4284 37.1549 13.2908 37.2203 14.2715 36.6775L30.9307 27.4351Z" fill="url(#paint2_linear_1_358)"/>
<path d="M30.9307 18.0299L14.2715 8.78747C13.2908 8.25026 12.4284 8.31567 11.8996 8.85844L26.1141 22.7325L30.9307 18.0299Z" fill="url(#paint3_linear_1_358)"/>
<defs>
<linearGradient id="paint0_linear_1_358" x1="24.8594" y1="35.3028" x2="6.17961" y2="16.1705" gradientUnits="userSpaceOnUse">
<stop stop-color="#00A0FF"/>
<stop offset="0.0066" stop-color="#00A1FF"/>
<stop offset="0.2601" stop-color="#00BEFF"/>
<stop offset="0.5122" stop-color="#00D2FF"/>
<stop offset="0.7604" stop-color="#00DFFF"/>
<stop offset="1" stop-color="#00E3FF"/>
</linearGradient>
<linearGradient id="paint1_linear_1_358" x1="38.5832" y1="22.7309" x2="10.9901" y2="22.7309" gradientUnits="userSpaceOnUse">
<stop stop-color="#FFE000"/>
<stop offset="0.4087" stop-color="#FFBD00"/>
<stop offset="0.7754" stop-color="#FFA500"/>
<stop offset="1" stop-color="#FF9C00"/>
</linearGradient>
<linearGradient id="paint2_linear_1_358" x1="28.3115" y1="20.1761" x2="2.98029" y2="-5.76901" gradientUnits="userSpaceOnUse">
<stop stop-color="#FF3A44"/>
<stop offset="1" stop-color="#C31162"/>
</linearGradient>
<linearGradient id="paint3_linear_1_358" x1="8.3215" y1="44.8038" x2="19.633" y2="33.2183" gradientUnits="userSpaceOnUse">
<stop stop-color="#32A071"/>
<stop offset="0.0685" stop-color="#2DA771"/>
<stop offset="0.4762" stop-color="#15CF74"/>
<stop offset="0.8009" stop-color="#06E775"/>
<stop offset="1" stop-color="#00F076"/>
</linearGradient>
</defs>
</svg>
