<svg width="295" height="124" viewBox="0 0 295 124" fill="none" xmlns="http://www.w3.org/2000/svg">
<path d="M0.6 93C0.6 95.8 0.6 98.4 0.8 100.8C0.8 102 1.6 102.8 2.8 102.8C9.4 103 30.8 103.2 37.6 103.2C40 103.2 45.8 103.2 52.6 103.2C52.6 109 52.6 114.6 52.8 120C52.8 121.2 53.6 122 54.8 122C61 122.4 67.2 122.4 73.4 122.4C78.8 122.4 84.2 122.4 89.6 122C90 102 90.4 82 90.4 62C90.4 42 90 22.8 89.6 3.99999C89.6 2.99999 88.6 2 87.6 2C76.4 1.8 66.8 1.39999 57 1.39999C47 1.39999 35 1.59999 30 1.59999C23.4 15.6 7.6 62 0.8 83.6C0.6 86.6 0.6 89.8 0.6 93ZM37.4 72C42.4 59.8 47.8 45.2 53.6 27.8C53 41.6 52.8 54.8 52.8 62C52.8 65.6 52.6 68.8 52.6 72.2C46.8 72.2 41.4 72 37.4 72ZM100.856 62C100.856 108.4 117.856 123.2 156.056 123.2C184.256 121.8 200.456 101.4 200.456 62C200.456 15.8 184.056 0.599989 146.056 0.599989C117.856 2 100.856 22.8 100.856 62ZM142.056 62C142.056 38.2 144.656 35.6 150.056 35.6C155.456 35.6 159.056 38.2 159.056 62C159.056 85.8 156.056 88.4 150.656 88.4C145.256 88.4 142.056 85.8 142.056 62ZM204.311 93C204.311 95.8 204.311 98.4 204.511 100.8C204.511 102 205.311 102.8 206.511 102.8C213.111 103 234.511 103.2 241.311 103.2C243.711 103.2 249.511 103.2 256.311 103.2C256.311 109 256.311 114.6 256.511 120C256.511 121.2 257.311 122 258.511 122C264.711 122.4 270.911 122.4 277.111 122.4C282.511 122.4 287.911 122.4 293.311 122C293.711 102 294.111 82 294.111 62C294.111 42 293.711 22.8 293.311 3.99999C293.311 2.99999 292.311 2 291.311 2C280.111 1.8 270.511 1.39999 260.711 1.39999C250.711 1.39999 238.711 1.59999 233.711 1.59999C227.111 15.6 211.311 62 204.511 83.6C204.311 86.6 204.311 89.8 204.311 93ZM241.111 72C246.111 59.8 251.511 45.2 257.311 27.8C256.711 41.6 256.511 54.8 256.511 62C256.511 65.6 256.311 68.8 256.311 72.2C250.511 72.2 245.111 72 241.111 72Z" fill="url(#paint0_linear_1_149)"/>
<defs>
<linearGradient id="paint0_linear_1_149" x1="-18.6356" y1="-99.572" x2="175.832" y2="277.804" gradientUnits="userSpaceOnUse">
<stop stop-color="#642B73"/>
<stop offset="1" stop-color="#C6426E"/>
</linearGradient>
</defs>
</svg>
