<svg width="103" height="26" viewBox="0 0 103 26" fill="none" xmlns="http://www.w3.org/2000/svg">
<path d="M0.84 13C0.84 17 0.92 20.84 1 24.6C1 24.84 1.16 25 1.4 25C2.72 25.08 8.52 25.2 9.88 25.2C11.2 25.2 15.48 25.16 16.76 25.08C16.76 24.08 16.76 23.12 16.76 22.16C16.76 21.04 16.76 19.92 16.76 18.68C16.72 18.48 16.56 18.28 16.36 18.28C15 18.24 10.64 18.2 9.28 18.2H8.76C8.76 17.52 8.76 16.84 8.76 16.12H13.96C13.96 15.16 13.96 14.32 13.96 13.48C13.96 12.52 13.96 11.56 13.96 10.44C13.92 10.24 13.76 10.04 13.56 10.04C12.52 10.04 10.36 10 8.76 10C8.76 9.28 8.76 8.56 8.76 7.88C9.44 7.88 10 7.88 10.32 7.88C11.64 7.88 15.4 7.88 16.68 7.8C16.68 6.8 16.68 5.84 16.68 4.88C16.68 3.76 16.68 2.64 16.68 1.4C16.64 1.2 16.48 0.999999 16.28 0.999999C14.92 0.96 10.64 0.919998 9.28 0.919998C7.96 0.919998 2.24 0.96 1 0.999999C0.88 5 0.84 9 0.84 13ZM19.0841 12.48C19.0841 16.48 19.1641 20.84 19.1641 24.6C19.1641 24.84 19.3241 25 19.5641 25C20.9241 25.08 22.2841 25.08 23.6441 25.08C24.8041 25.08 25.9641 25.08 27.1641 25C27.1241 21.88 27.0041 18.44 26.9641 15.16C27.1241 15.16 27.3241 15.16 27.4841 15.16C28.2841 17.92 29.4041 21.32 30.5241 24.72C30.6041 24.96 30.9241 25.12 31.1241 25.12C32.2041 25.2 33.2841 25.24 34.3641 25.24C35.7641 25.24 37.2041 25.16 38.5241 25C37.8441 22 36.9241 19.12 35.3641 16C34.8041 15.08 34.0441 14.44 33.1241 14.12C35.7641 12.88 37.4041 10.64 37.4041 7.68C37.4041 1.2 33.3241 0.719998 27.3641 0.719998C25.1241 0.719998 21.8041 0.999999 19.1641 1.4C19.1641 5.4 19.0841 8.48 19.0841 12.48ZM26.9641 10.24C26.9641 8.96 26.9641 7.8 26.9641 6.64C27.2441 6.6 27.6041 6.6 27.9241 6.6C29.3641 6.6 29.7641 7.28 29.7641 8.52C29.7641 9.56 28.8841 10.24 27.6441 10.24H26.9641ZM40.1388 12.48C40.1388 16.48 40.2188 20.84 40.2188 24.6C40.2188 24.84 40.3788 25 40.6188 25C41.9788 25.08 43.3388 25.08 44.6988 25.08C45.8588 25.08 47.0188 25.08 48.2188 25C48.1788 21.88 48.0588 18.44 48.0188 15.16C48.1788 15.16 48.3788 15.16 48.5388 15.16C49.3388 17.92 50.4588 21.32 51.5788 24.72C51.6588 24.96 51.9788 25.12 52.1788 25.12C53.2588 25.2 54.3388 25.24 55.4188 25.24C56.8188 25.24 58.2588 25.16 59.5788 25C58.8988 22 57.9788 19.12 56.4188 16C55.8588 15.08 55.0988 14.44 54.1788 14.12C56.8188 12.88 58.4588 10.64 58.4588 7.68C58.4588 1.2 54.3788 0.719998 48.4188 0.719998C46.1788 0.719998 42.8588 0.999999 40.2188 1.4C40.2188 5.4 40.1388 8.48 40.1388 12.48ZM48.0188 10.24C48.0188 8.96 48.0188 7.8 48.0188 6.64C48.2988 6.6 48.6588 6.6 48.9788 6.6C50.4188 6.6 50.8188 7.28 50.8188 8.52C50.8188 9.56 49.9388 10.24 48.6988 10.24H48.0188ZM60.3134 13C60.3134 22.28 63.7934 25.24 71.4334 25.24C77.0734 24.96 80.6334 20.88 80.6334 13C80.6334 3.76 77.0334 0.719998 69.4334 0.719998C63.7934 0.999999 60.3134 5.16 60.3134 13ZM68.6334 13C68.6334 8.24 69.3134 7.72 70.3934 7.72C71.4734 7.72 72.2734 8.24 72.2734 13C72.2734 17.76 71.5934 18.28 70.5134 18.28C69.4334 18.28 68.6334 17.76 68.6334 13ZM82.795 12.48C82.795 16.48 82.875 20.84 82.875 24.6C82.875 24.84 83.035 25 83.275 25C84.635 25.08 85.995 25.08 87.355 25.08C88.515 25.08 89.675 25.08 90.875 25C90.835 21.88 90.715 18.44 90.675 15.16C90.835 15.16 91.035 15.16 91.195 15.16C91.995 17.92 93.115 21.32 94.235 24.72C94.315 24.96 94.635 25.12 94.835 25.12C95.915 25.2 96.995 25.24 98.075 25.24C99.475 25.24 100.915 25.16 102.235 25C101.555 22 100.635 19.12 99.075 16C98.515 15.08 97.755 14.44 96.835 14.12C99.475 12.88 101.115 10.64 101.115 7.68C101.115 1.2 97.035 0.719998 91.075 0.719998C88.835 0.719998 85.515 0.999999 82.875 1.4C82.875 5.4 82.795 8.48 82.795 12.48ZM90.675 10.24C90.675 8.96 90.675 7.8 90.675 6.64C90.955 6.6 91.315 6.6 91.635 6.6C93.075 6.6 93.475 7.28 93.475 8.52C93.475 9.56 92.595 10.24 91.355 10.24H90.675Z" fill="url(#paint0_linear_1_150)"/>
<defs>
<linearGradient id="paint0_linear_1_150" x1="-6.67373" y1="-19.1144" x2="19.775" y2="68.4107" gradientUnits="userSpaceOnUse">
<stop stop-color="#642B73"/>
<stop offset="1" stop-color="#C6426E"/>
</linearGradient>
</defs>
</svg>
