<svg width="194" height="56" viewBox="0 0 194 56" fill="none" xmlns="http://www.w3.org/2000/svg">
<path d="M12.792 27.4C12.792 24.904 12.792 22.72 12.844 20.536H13.728C15.132 20.536 16.172 21.212 16.172 27.4C16.172 33.588 15.132 34.316 13.728 34.316H12.844C12.792 32.132 12.792 29.948 12.792 27.4ZM2.496 27.4C2.496 32.6 2.6 37.072 2.6 41.96C2.6 42.272 2.808 42.48 3.12 42.48C6.708 42.844 9.984 43.104 12.844 43.104C21.58 43.104 27.04 40.4 27.04 27.4C27.04 15.18 21.528 11.436 12.74 11.436C9.828 11.436 6.032 11.8 2.6 12.32C2.6 17.52 2.496 22.2 2.496 27.4ZM27.5417 15.752C27.5417 17.156 27.5417 18.56 27.5937 20.016C27.5937 20.328 27.8017 20.536 28.1137 20.536C28.9977 20.588 31.4937 20.64 33.8337 20.692C33.8337 22.876 33.8337 25.008 33.8337 27.4C33.8337 32.6 33.9377 37.592 34.0417 42.48C34.0417 42.792 34.2497 43 34.5617 43C36.2777 43.104 38.0977 43.156 39.8657 43.156C41.5817 43.156 42.7777 43.104 44.4417 43C44.5457 37.8 44.6497 32.6 44.6497 27.4C44.6497 25.008 44.5977 22.876 44.5457 20.744C47.2497 20.744 50.0057 20.692 50.8897 20.64C50.8897 19.34 50.8897 18.04 50.8897 16.792C50.8897 15.284 50.8897 13.828 50.8897 12.32C50.8377 12.06 50.6297 11.8 50.3697 11.8C48.6017 11.748 41.3737 11.696 39.6057 11.696C37.8897 11.696 29.2057 11.748 27.5937 11.8C27.5417 13.204 27.5417 14.504 27.5417 15.752ZM51.4223 27.4C51.4223 40.4 56.8823 43.104 65.6183 43.104C67.7503 43.104 69.4663 42.948 71.5983 42.532L70.5063 34.316L65.7223 34.68C63.5903 34.784 62.2383 33.588 62.2383 27.4C62.2383 21.212 63.7983 20.068 65.7223 20.172L70.5063 20.484L71.6503 12.32C69.5183 11.852 67.8543 11.436 65.7223 11.436C56.9343 11.436 51.4223 15.18 51.4223 27.4ZM120.814 27.4C120.814 32.6 120.918 37.592 121.022 42.48C121.022 42.792 121.23 43 121.542 43C123.258 43.104 130.798 43.26 132.566 43.26C134.282 43.26 138.598 43.208 140.262 43.104C140.262 41.804 140.262 40.556 140.262 39.308C140.262 37.852 140.262 36.396 140.262 34.784C140.21 34.524 140.002 34.264 139.742 34.264C137.974 34.212 133.554 34.16 131.786 34.16H131.578C131.578 31.976 131.63 29.74 131.63 27.4C131.63 22.2 131.526 17.208 131.422 12.32C131.422 12.06 131.162 11.8 130.902 11.8C129.134 11.748 127.314 11.696 125.546 11.696C123.83 11.696 122.634 11.748 121.022 11.8C120.866 17 120.814 22.2 120.814 27.4ZM140.218 42.584C140.218 42.844 140.426 43 140.686 43C142.402 43.104 144.222 43.156 145.99 43.156C147.706 43.156 148.642 43.104 150.306 43C150.67 41.128 150.982 39.204 151.294 37.28H156.13C156.39 39.048 156.702 40.816 157.066 42.48C157.118 42.792 157.378 43 157.638 43C159.458 43.156 160.966 43.156 162.734 43.156C164.502 43.156 165.646 43.104 167.258 43C165.75 32.912 163.306 22.304 161.33 12.32C161.278 12.06 161.018 11.8 160.758 11.8C158.262 11.748 155.818 11.696 153.322 11.696C150.878 11.696 148.486 11.696 146.146 11.8C144.222 21.42 142.038 31.456 140.478 40.972C140.374 41.492 140.218 42.48 140.218 42.584ZM152.178 30.52C152.594 26.62 153.01 22.72 153.478 18.872C153.998 22.772 154.518 26.672 155.09 30.52H152.178ZM179.454 23.24C179.454 21.628 179.454 20.276 179.506 18.976C179.61 18.924 179.922 18.924 180.13 18.924C181.482 18.924 182.834 19.6 182.834 21.004C182.834 22.46 181.43 23.24 179.818 23.24H179.454ZM179.506 30.936H180.806C182.21 30.936 183.198 31.82 183.198 33.016C183.198 34.368 182.418 35.148 180.442 35.148H179.61C179.558 33.744 179.506 32.34 179.506 30.936ZM169.262 26.724C169.262 31.924 169.366 37.176 169.366 42.064C169.366 42.376 169.574 42.636 169.886 42.688C173.474 43.104 177.426 43.26 180.962 43.26C187.982 43.26 193.598 41.856 193.598 33.588C193.598 31.092 191.882 28.804 189.022 27.192C190.894 25.58 192.038 23.24 192.038 20.484C192.038 12.06 186.734 11.436 179.506 11.436C176.594 11.436 172.798 11.8 169.366 12.32C169.366 17.52 169.262 21.524 169.262 26.724Z" fill="white"/>
<path d="M70.51 1.13173L101.791 1.09275L102.244 16.5597L82.7172 16.1582L70.51 1.13173Z" fill="url(#paint0_linear_1_155)"/>
<path d="M114.003 15.7349L110.886 30.5386L95.2836 30.6029L101.57 0.748664L114.003 15.7349Z" fill="#F1C40F"/>
<path d="M120.378 50.3255L89.0969 50.3645L88.6434 34.8976L108.171 35.299L120.378 50.3255Z" fill="url(#paint1_linear_1_155)"/>
<path d="M77.0007 35.1703L80.1179 20.3665L95.7204 20.3022L89.4341 50.1565L77.0007 35.1703Z" fill="#9B59B6"/>
<defs>
<linearGradient id="paint0_linear_1_155" x1="70.6298" y1="9.37266" x2="103.74" y2="9.45413" gradientUnits="userSpaceOnUse">
<stop stop-color="#F39C12"/>
<stop offset="1" stop-color="#BD780B"/>
</linearGradient>
<linearGradient id="paint1_linear_1_155" x1="117.603" y1="41.7907" x2="87.3909" y2="41.7894" gradientUnits="userSpaceOnUse">
<stop stop-color="#8E44AD"/>
<stop offset="1" stop-color="#600088"/>
</linearGradient>
</defs>
</svg>
