<svg width="164" height="47" viewBox="0 0 164 47" fill="none" xmlns="http://www.w3.org/2000/svg">
<path d="M42.725 11.2996C44.302 11.2796 45.8661 11.5858 47.3188 12.1988C48.7084 12.7949 49.9528 13.6833 50.9669 14.8035C52.0447 16.0109 52.8677 17.4228 53.3869 18.9547C54.5478 22.5759 54.5478 26.4685 53.3869 30.0897C52.8677 31.6225 52.0447 33.0353 50.9669 34.2439C49.9542 35.3605 48.7091 36.2424 47.3188 36.8276C45.8645 37.4352 44.3015 37.7411 42.725 37.7268H36.1194V37.3491L38.3893 36.7826V12.2438L36.1074 11.6833V11.3056L42.725 11.2996ZM41.59 12.055V36.9655H42.725C43.7922 36.9685 44.846 36.7276 45.8056 36.2611C46.8257 35.7547 47.6983 34.9951 48.3397 34.0551C49.1341 32.8771 49.7106 31.5666 50.0421 30.1856C50.8708 26.4432 50.8708 22.5653 50.0421 18.8228C49.71 17.4421 49.1335 16.1316 48.3397 14.9533C47.6974 14.0142 46.825 13.2547 45.8056 12.7473C44.8455 12.2829 43.7918 12.044 42.725 12.049L41.59 12.055Z" fill="#151C26"/>
<path d="M66.7367 29.9845H58.9842L57.0926 36.3988L59.5516 37.3429V37.7206H53.8799V37.3429L56.336 36.3988L63.7101 10.7329H64.2806L72.2223 36.7764L74.4922 37.3429V37.7206H66.5475V37.3429L68.8144 36.7764L66.7367 29.9845ZM59.1763 29.2652H66.5115L62.7283 16.7785L59.1763 29.2652Z" fill="#151C26"/>
<path d="M75.8086 33.9471C76.0876 33.9434 76.364 34.0004 76.6186 34.1143C76.8733 34.2282 77.0999 34.3962 77.2828 34.6065C77.707 35.1067 77.922 35.7506 77.8834 36.4048C77.9205 37.3262 77.7459 38.2438 77.3729 39.0874C77.0893 39.6838 76.7123 40.2311 76.256 40.709C75.8071 41.16 75.2651 41.5077 74.6677 41.728L74.2893 41.1286C74.6977 40.9396 75.0793 40.6978 75.4243 40.4092C75.7234 40.1597 75.9844 39.8679 76.1989 39.543C76.444 39.174 76.5697 38.7388 76.5592 38.2961C76.5624 38.2124 76.5492 38.1289 76.5202 38.0503C76.4993 37.9927 76.4742 37.9366 76.4451 37.8825L76.3701 37.7297C76.3069 37.7875 76.229 37.8269 76.1449 37.8436C75.9715 37.89 75.793 37.9152 75.6134 37.9185C75.3605 37.9378 75.1063 37.9023 74.8684 37.8144C74.6305 37.7265 74.4145 37.5882 74.2351 37.4092C74.0557 37.2301 73.9172 37.0144 73.8291 36.7769C73.7411 36.5394 73.7055 36.2857 73.7249 36.0332C73.7221 35.7599 73.7739 35.4888 73.8772 35.2357C73.9806 34.9826 74.1335 34.7527 74.327 34.5593C74.5204 34.3659 74.7506 34.2129 75.004 34.1093C75.2573 34.0057 75.5288 33.9536 75.8026 33.9561L75.8086 33.9471Z" fill="#151C26"/>
<path d="M102.466 12.2436V36.9653H109.072V12.2436L106.817 11.6831V11.3054H114.566V11.6831L112.299 12.2496V36.7824L114.566 37.3489V37.7266H87.1533V37.3489L89.4232 36.7824V12.2436L87.1533 11.6831V11.3054H94.9058V11.6831L92.6359 12.2496V36.9713H99.2415V12.2436L96.9836 11.6831V11.3054H104.736V11.6831L102.466 12.2436Z" fill="#151C26"/>
<path d="M129.504 36.9653C129.495 35.9485 129.714 34.9427 130.146 34.0219C130.549 33.1544 131.099 32.3626 131.771 31.681H132.137C132.086 32.0077 132.05 32.3494 132.026 32.7001C131.999 32.9998 131.981 33.3296 131.969 33.6832C131.957 34.0369 131.948 34.3756 131.948 34.7023C131.948 35.1789 131.948 35.6015 131.969 35.9672C131.99 36.3328 131.999 36.6535 132.026 36.9293C132.044 37.1953 132.081 37.4598 132.137 37.7206H116.458V37.3429L118.728 36.7764V12.2436L116.458 11.6831V11.3054H131.771C131.717 11.5665 131.68 11.8308 131.66 12.0967C131.633 12.3755 131.615 12.6962 131.603 13.0588C131.591 13.4215 131.582 13.8471 131.582 14.3237C131.582 14.6774 131.582 15.0221 131.603 15.3608C131.624 15.6995 131.633 16.0232 131.66 16.3259C131.684 16.6766 131.723 17.0183 131.771 17.345H131.396C130.722 16.6644 130.171 15.8724 129.768 15.0041C129.336 14.0833 129.117 13.0775 129.126 12.0607H121.929V23.3725H125.532L127.234 19.9736H127.612V27.5238H127.234L125.532 24.1309H121.929V36.9653H129.504Z" fill="#151C26"/>
<path d="M146.708 37.1602L148.978 37.7267V38.1044H141.226V37.7267L143.493 37.1602V35.0861C141.97 35.0056 140.474 34.6607 139.07 34.067C137.779 33.5196 136.605 32.7312 135.611 31.7441C134.636 30.7709 133.863 29.6147 133.338 28.3422C132.253 25.6402 132.253 22.6247 133.338 19.9228C133.863 18.6526 134.635 17.4985 135.608 16.5268C136.604 15.5416 137.777 14.7534 139.067 14.2039C140.471 13.6102 141.967 13.2653 143.49 13.1848V11.866L141.223 11.2995V10.9219H148.975V11.2995L146.705 11.866V13.1818C148.228 13.2623 149.724 13.6072 151.128 14.2009C152.418 14.7512 153.592 15.5392 154.59 16.5238C155.562 17.4956 156.333 18.6497 156.857 19.9198C157.942 22.6217 157.942 25.6372 156.857 28.3392C156.333 29.6092 155.562 30.7633 154.59 31.7351C153.594 32.7216 152.419 33.51 151.128 34.058C149.724 34.6517 148.228 34.9966 146.705 35.0771L146.708 37.1602ZM136.121 24.137C136.093 25.628 136.277 27.1155 136.668 28.555C136.973 29.6705 137.482 30.7202 138.169 31.6512C138.781 32.4577 139.58 33.1045 140.496 33.5365C141.437 33.9738 142.447 34.2427 143.481 34.3308V13.9042C142.445 13.9915 141.434 14.2657 140.496 14.7134C139.582 15.1583 138.785 15.8112 138.169 16.6197C137.48 17.5559 136.971 18.6119 136.668 19.7339C136.28 21.1668 136.096 22.647 136.121 24.131V24.137ZM154.083 24.137C154.108 22.6527 153.923 21.1723 153.533 19.7399C153.23 18.6179 152.721 17.5619 152.032 16.6257C151.417 15.818 150.621 15.1651 149.708 14.7194C148.764 14.27 147.747 13.9958 146.705 13.9102V34.3308C147.745 34.2444 148.762 33.9755 149.708 33.5365C150.623 33.1035 151.42 32.4568 152.032 31.6512C152.719 30.7202 153.228 29.6705 153.533 28.555C153.927 27.1141 154.112 25.6243 154.083 24.131V24.137Z" fill="#151C26"/>
<path d="M161.642 10.733C161.946 10.7241 162.248 10.7799 162.529 10.8967C162.809 11.0135 163.062 11.1886 163.269 11.4104C163.698 11.866 163.912 12.5204 163.912 13.3736L162.209 31.6811H161.077L159.375 13.3736C159.375 12.5204 159.589 11.866 160.018 11.4104C160.225 11.189 160.477 11.0141 160.757 10.8973C161.037 10.7805 161.339 10.7245 161.642 10.733V10.733ZM159.564 36.0242C159.569 35.5492 159.738 35.0905 160.043 34.7261C160.348 34.3616 160.771 34.1138 161.238 34.0249C161.705 33.9359 162.189 34.0112 162.607 34.238C163.025 34.4648 163.352 34.8291 163.531 35.269C163.711 35.7088 163.732 36.1972 163.592 36.6511C163.452 37.1049 163.158 37.4963 162.761 37.7586C162.365 38.021 161.889 38.1382 161.416 38.0903C160.943 38.0424 160.5 37.8323 160.165 37.4959C159.97 37.304 159.816 37.0746 159.713 36.8216C159.61 36.5686 159.559 36.2973 159.564 36.0242V36.0242Z" fill="#151C26"/>
<path d="M27.114 16.7493C26.1208 14.4063 24.6263 12.3084 22.7353 10.6026C21.0276 9.0881 19.0654 7.88659 16.939 7.05347L16.0249 0.156982L12.8616 33.3211H10.4742L7.81229 5.40968H0V44.5083H6.87754C7.90927 46.5538 10.1791 46.2633 10.3731 46.2324C9.69414 46.0396 9.0756 45.6774 8.57577 45.1798C8.36019 44.9779 8.16779 44.7527 8.00213 44.5083C7.86268 44.3097 7.74572 44.0962 7.6534 43.8718C7.57382 43.7161 7.51287 43.5515 7.47182 43.3815C7.35865 42.9871 7.30168 42.5786 7.30261 42.1683C7.30261 42.0044 7.31226 41.8407 7.3315 41.678C7.42499 40.7199 7.86516 39.8286 8.56958 39.1711C9.40193 38.3792 10.5077 37.9374 11.6576 37.9374C12.8074 37.9374 13.9132 38.3792 14.7455 39.1711C15.2786 39.6667 15.6611 40.302 15.8495 41.0044C15.9422 41.3212 15.9928 41.6488 16.0001 41.9788C16.0053 42.0418 16.0053 42.1052 16.0001 42.1683C16.0008 42.5401 15.9537 42.9105 15.8598 43.2703C15.9403 43.2415 16.0208 43.2209 16.1012 43.19C18.5408 42.3667 20.7907 41.0647 22.7188 39.3607C24.612 37.6577 26.1069 35.5599 27.0975 33.216C28.1512 30.7991 28.6767 28.0457 28.674 24.9559C28.7008 21.9011 28.1684 19.1738 27.114 16.7493Z" fill="#151C26"/>
</svg>
