<svg width="120" height="34" viewBox="0 0 120 34" fill="none" xmlns="http://www.w3.org/2000/svg">
<path d="M7.872 16.4C7.872 14.864 7.872 13.52 7.904 12.176H8.448C9.312 12.176 9.952 12.592 9.952 16.4C9.952 20.208 9.312 20.656 8.448 20.656H7.904C7.872 19.312 7.872 17.968 7.872 16.4ZM1.536 16.4C1.536 19.6 1.6 22.352 1.6 25.36C1.6 25.552 1.728 25.68 1.92 25.68C4.128 25.904 6.144 26.064 7.904 26.064C13.28 26.064 16.64 24.4 16.64 16.4C16.64 8.88 13.248 6.576 7.84 6.576C6.048 6.576 3.712 6.8 1.6 7.12C1.6 10.32 1.536 13.2 1.536 16.4ZM16.9488 9.232C16.9488 10.096 16.9488 10.96 16.9808 11.856C16.9808 12.048 17.1088 12.176 17.3008 12.176C17.8448 12.208 19.3808 12.24 20.8208 12.272C20.8208 13.616 20.8208 14.928 20.8208 16.4C20.8208 19.6 20.8848 22.672 20.9488 25.68C20.9488 25.872 21.0768 26 21.2688 26C22.3248 26.064 23.4448 26.096 24.5328 26.096C25.5888 26.096 26.3248 26.064 27.3488 26C27.4128 22.8 27.4768 19.6 27.4768 16.4C27.4768 14.928 27.4448 13.616 27.4128 12.304C29.0768 12.304 30.7728 12.272 31.3168 12.24C31.3168 11.44 31.3168 10.64 31.3168 9.872C31.3168 8.944 31.3168 8.048 31.3168 7.12C31.2848 6.96 31.1568 6.8 30.9968 6.8C29.9088 6.768 25.4608 6.736 24.3728 6.736C23.3168 6.736 17.9728 6.768 16.9808 6.8C16.9488 7.664 16.9488 8.464 16.9488 9.232ZM31.6445 16.4C31.6445 24.4 35.0045 26.064 40.3805 26.064C41.6925 26.064 42.7485 25.968 44.0605 25.712L43.3885 20.656L40.4445 20.88C39.1325 20.944 38.3005 20.208 38.3005 16.4C38.3005 12.592 39.2605 11.888 40.4445 11.952L43.3885 12.144L44.0925 7.12C42.7805 6.832 41.7565 6.576 40.4445 6.576C35.0365 6.576 31.6445 8.88 31.6445 16.4ZM74.347 16.4C74.347 19.6 74.411 22.672 74.475 25.68C74.475 25.872 74.603 26 74.795 26C75.851 26.064 80.491 26.16 81.579 26.16C82.635 26.16 85.291 26.128 86.315 26.064C86.315 25.264 86.315 24.496 86.315 23.728C86.315 22.832 86.315 21.936 86.315 20.944C86.283 20.784 86.155 20.624 85.995 20.624C84.907 20.592 82.187 20.56 81.099 20.56H80.971C80.971 19.216 81.003 17.84 81.003 16.4C81.003 13.2 80.939 10.128 80.875 7.12C80.875 6.96 80.715 6.8 80.555 6.8C79.467 6.768 78.347 6.736 77.259 6.736C76.203 6.736 75.467 6.768 74.475 6.8C74.379 10 74.347 13.2 74.347 16.4ZM86.288 25.744C86.288 25.904 86.416 26 86.576 26C87.632 26.064 88.752 26.096 89.84 26.096C90.896 26.096 91.472 26.064 92.496 26C92.72 24.848 92.912 23.664 93.104 22.48H96.08C96.24 23.568 96.432 24.656 96.656 25.68C96.688 25.872 96.848 26 97.008 26C98.128 26.096 99.056 26.096 100.144 26.096C101.232 26.096 101.936 26.064 102.928 26C102 19.792 100.496 13.264 99.28 7.12C99.248 6.96 99.088 6.8 98.928 6.8C97.392 6.768 95.888 6.736 94.352 6.736C92.848 6.736 91.376 6.736 89.936 6.8C88.752 12.72 87.408 18.896 86.448 24.752C86.384 25.072 86.288 25.68 86.288 25.744ZM93.648 18.32C93.904 15.92 94.16 13.52 94.448 11.152C94.768 13.552 95.088 15.952 95.44 18.32H93.648ZM110.433 13.84C110.433 12.848 110.433 12.016 110.465 11.216C110.529 11.184 110.721 11.184 110.849 11.184C111.681 11.184 112.513 11.6 112.513 12.464C112.513 13.36 111.649 13.84 110.657 13.84H110.433ZM110.465 18.576H111.265C112.129 18.576 112.737 19.12 112.737 19.856C112.737 20.688 112.257 21.168 111.041 21.168H110.529C110.497 20.304 110.465 19.44 110.465 18.576ZM104.161 15.984C104.161 19.184 104.225 22.416 104.225 25.424C104.225 25.616 104.353 25.776 104.545 25.808C106.753 26.064 109.185 26.16 111.361 26.16C115.681 26.16 119.137 25.296 119.137 20.208C119.137 18.672 118.081 17.264 116.321 16.272C117.473 15.28 118.177 13.84 118.177 12.144C118.177 6.96 114.913 6.576 110.465 6.576C108.673 6.576 106.337 6.8 104.225 7.12C104.225 10.32 104.161 12.784 104.161 15.984Z" fill="#2C3E50"/>
<path d="M44.3176 1.70478L63.7976 1.6805L64.08 11.3125L51.9196 11.0625L44.3176 1.70478Z" fill="url(#paint0_linear_1_114)"/>
<path d="M71.4028 10.7988L69.4616 20.0177L59.7452 20.0578L63.66 1.46618L71.4028 10.7988Z" fill="#F1C40F"/>
<path d="M75.3725 32.34L55.8925 32.3643L55.6101 22.7323L67.7705 22.9823L75.3725 32.34Z" fill="url(#paint1_linear_1_114)"/>
<path d="M48.3597 22.9022L50.3009 13.6832L60.0173 13.6431L56.1025 32.2347L48.3597 22.9022Z" fill="#9B59B6"/>
<defs>
<linearGradient id="paint0_linear_1_114" x1="44.3923" y1="6.83678" x2="65.0118" y2="6.88752" gradientUnits="userSpaceOnUse">
<stop stop-color="#F39C12"/>
<stop offset="1" stop-color="#BD780B"/>
</linearGradient>
<linearGradient id="paint1_linear_1_114" x1="73.6447" y1="27.025" x2="54.8301" y2="27.0242" gradientUnits="userSpaceOnUse">
<stop stop-color="#8E44AD"/>
<stop offset="1" stop-color="#600088"/>
</linearGradient>
</defs>
</svg>
