<svg width="96" height="86" viewBox="0 0 96 86" fill="none" xmlns="http://www.w3.org/2000/svg">
<path d="M4.97072 62.9524C6.15531 62.9373 7.33019 63.1673 8.42137 63.6278C9.46517 64.0755 10.3999 64.7428 11.1616 65.5842C11.9712 66.4912 12.5894 67.5517 12.9794 68.7024C13.8514 71.4225 13.8514 74.3463 12.9794 77.0664C12.5894 78.2178 11.9712 79.279 11.1616 80.1868C10.401 81.0255 9.46567 81.6879 8.42137 82.1275C7.32893 82.5839 6.15492 82.8137 4.97072 82.8029H0.00901633V82.5193L1.71404 82.0937V63.6615L0 63.2405V62.9569L4.97072 62.9524ZM4.11821 63.5197V82.2311H4.97072C5.77239 82.2334 6.56394 82.0524 7.28469 81.702C8.05094 81.3216 8.70641 80.751 9.18818 80.045C9.78488 79.1601 10.218 78.1757 10.4669 77.1384C11.0894 74.3273 11.0894 71.4145 10.4669 68.6034C10.2175 67.5662 9.78445 66.5819 9.18818 65.6968C8.70572 64.9914 8.05043 64.4209 7.28469 64.0398C6.56357 63.6909 5.77204 63.5115 4.97072 63.5152L4.11821 63.5197Z" fill="#151C26"/>
<path d="M23.0069 76.9876H17.1837L15.7628 81.8056L17.6099 82.5148V82.7984H13.3496V82.5148L15.1945 81.8056L20.7335 62.5269H21.1621L27.1274 82.0892L28.8324 82.5148V82.7984H22.8648V82.5148L24.5676 82.0892L23.0069 76.9876ZM17.328 76.4472H22.8378L19.996 67.0679L17.328 76.4472Z" fill="#151C26"/>
<path d="M29.822 79.964C30.0315 79.9612 30.2392 80.0041 30.4304 80.0896C30.6217 80.1752 30.7919 80.3013 30.9293 80.4593C31.248 80.835 31.4095 81.3187 31.3804 81.8101C31.4083 82.5022 31.2771 83.1915 30.997 83.8251C30.784 84.2731 30.5008 84.6842 30.158 85.0431C29.8208 85.3819 29.4137 85.6431 28.965 85.8086L28.6808 85.3583C28.9875 85.2164 29.2742 85.0347 29.5333 84.818C29.758 84.6306 29.954 84.4114 30.1152 84.1674C30.2992 83.8901 30.3937 83.5632 30.3858 83.2308C30.3882 83.1679 30.3782 83.1052 30.3565 83.0461C30.3408 83.0028 30.3219 82.9607 30.3001 82.9201L30.2437 82.8053C30.1962 82.8487 30.1377 82.8783 30.0746 82.8908C29.9443 82.9257 29.8102 82.9446 29.6754 82.9471C29.4854 82.9616 29.2945 82.9349 29.1158 82.8689C28.9371 82.8029 28.7748 82.699 28.64 82.5645C28.5053 82.43 28.4013 82.268 28.3351 82.0896C28.269 81.9112 28.2422 81.7206 28.2568 81.531C28.2547 81.3257 28.2936 81.122 28.3712 80.9319C28.4489 80.7418 28.5638 80.5691 28.7091 80.4238C28.8544 80.2786 29.0273 80.1637 29.2176 80.0859C29.4079 80.0081 29.6118 79.9689 29.8175 79.9707L29.822 79.964Z" fill="#151C26"/>
<path d="M49.8449 63.6617V82.2313H54.8066V63.6617L53.1129 63.2407V62.957H58.9339V63.2407L57.2311 63.6662V82.0939L58.9339 82.5194V82.8031H38.3428V82.5194L40.0478 82.0939V63.6617L38.3428 63.2407V62.957H44.166V63.2407L42.461 63.6662V82.2358H47.4227V63.6617L45.7267 63.2407V62.957H51.5499V63.2407L49.8449 63.6617Z" fill="#151C26"/>
<path d="M70.1539 82.2313C70.147 81.4675 70.3119 80.712 70.6365 80.0204C70.9392 79.3688 71.3519 78.774 71.8566 78.262H72.1318C72.0935 78.5074 72.0664 78.7641 72.0483 79.0275C72.028 79.2527 72.0145 79.5003 72.0055 79.766C71.9965 80.0316 71.9897 80.286 71.9897 80.5315C71.9897 80.8894 71.9897 81.2069 72.0055 81.4815C72.0213 81.7562 72.028 81.9971 72.0483 82.2042C72.0621 82.4041 72.09 82.6027 72.1318 82.7986H60.3545V82.5149L62.0595 82.0894V63.6617L60.3545 63.2407V62.957H71.8566C71.8159 63.1531 71.788 63.3517 71.7732 63.5514C71.7529 63.7608 71.7394 64.0017 71.7303 64.2741C71.7213 64.5465 71.7146 64.8662 71.7146 65.2242C71.7146 65.4899 71.7146 65.7488 71.7303 66.0032C71.7461 66.2576 71.7529 66.5007 71.7732 66.7281C71.7912 66.9915 71.8206 67.2482 71.8566 67.4936H71.5747C71.0686 66.9824 70.655 66.3875 70.3523 65.7353C70.0278 65.0436 69.8628 64.2881 69.8697 63.5244H64.4637V72.0212H67.1701L68.4488 69.4681H68.733V75.1393H68.4488L67.1701 72.5908H64.4637V82.2313H70.1539Z" fill="#151C26"/>
<path d="M83.077 82.3772L84.782 82.8027V83.0864H78.9588V82.8027L80.6615 82.3772V80.8193C79.518 80.7588 78.3938 80.4997 77.3395 80.0538C76.37 79.6426 75.4882 79.0504 74.7413 78.3089C74.0089 77.5779 73.4287 76.7095 73.034 75.7536C72.2191 73.724 72.2191 71.459 73.034 69.4294C73.4285 68.4753 74.008 67.6084 74.7391 66.8786C75.4871 66.1385 76.3686 65.5465 77.3372 65.1337C78.3916 64.6878 79.5158 64.4287 80.6593 64.3683V63.3776L78.9565 62.9521V62.6685H84.7798V62.9521L83.0747 63.3776V64.366C84.2183 64.4265 85.3425 64.6855 86.3968 65.1315C87.3658 65.5448 88.248 66.1367 88.9972 66.8763C89.7277 67.6063 90.3063 68.4732 90.7 69.4272C91.5149 71.4567 91.5149 73.7218 90.7 75.7513C90.3063 76.7053 89.7277 77.5722 88.9972 78.3022C88.2492 79.0432 87.3667 79.6354 86.3968 80.047C85.3425 80.493 84.2183 80.752 83.0747 80.8125L83.077 82.3772ZM75.1247 72.5949C75.1035 73.7149 75.2418 74.8322 75.5352 75.9134C75.7644 76.7514 76.1467 77.5399 76.6629 78.2391C77.1226 78.8449 77.7223 79.3308 78.4107 79.6553C79.1172 79.9838 79.876 80.1857 80.6525 80.2519V64.9086C79.8746 64.9742 79.115 65.1802 78.4107 65.5165C77.7239 65.8506 77.1252 66.3411 76.6629 66.9484C76.1449 67.6515 75.7625 68.4448 75.5352 69.2876C75.2439 70.3638 75.1057 71.4757 75.1247 72.5904V72.5949ZM88.6161 72.5949C88.6355 71.48 88.4966 70.368 88.2033 69.2921C87.976 68.4493 87.5936 67.6561 87.0757 66.9529C86.6137 66.3461 86.0159 65.8558 85.3301 65.521C84.6215 65.1834 83.8572 64.9774 83.0747 64.9131V80.2519C83.8558 80.187 84.6193 79.985 85.3301 79.6553C86.0174 79.33 86.6162 78.8443 87.0757 78.2391C87.5919 77.5399 87.9742 76.7514 88.2033 75.9134C88.4992 74.8311 88.6382 73.7121 88.6161 72.5904V72.5949Z" fill="#151C26"/>
<path d="M94.2946 62.5271C94.5228 62.5204 94.7499 62.5623 94.9607 62.65C95.1714 62.7377 95.3611 62.8693 95.517 63.0359C95.8387 63.3781 95.9996 63.8696 95.9996 64.5105L94.7208 78.2621H93.8706L92.5918 64.5105C92.5918 63.8696 92.7527 63.3781 93.0744 63.0359C93.2301 62.8696 93.4193 62.7382 93.6297 62.6505C93.84 62.5627 94.0667 62.5207 94.2946 62.5271ZM92.7339 81.5244C92.7374 81.1676 92.8646 80.8231 93.0938 80.5493C93.323 80.2755 93.6401 80.0894 93.9911 80.0226C94.3422 79.9558 94.7056 80.0123 95.0197 80.1827C95.3337 80.353 95.579 80.6267 95.7138 80.9571C95.8486 81.2875 95.8647 81.6544 95.7593 81.9953C95.6539 82.3362 95.4335 82.6301 95.1355 82.8272C94.8376 83.0243 94.4805 83.1123 94.1249 83.0763C93.7693 83.0403 93.4372 82.8826 93.1849 82.6298C93.0386 82.4857 92.9231 82.3134 92.8456 82.1234C92.7681 81.9333 92.73 81.7295 92.7339 81.5244Z" fill="#151C26"/>
<path d="M61.6017 18.7371C60.5161 16.1762 58.8827 13.8832 56.8159 12.0189C54.9495 10.3635 52.8048 9.05032 50.4807 8.13974L49.4816 0.602051L46.0242 36.8496H43.4148L40.5054 6.34312H31.9668V49.077H39.4838C40.6114 51.3126 43.0923 50.9951 43.3043 50.9614C42.5622 50.7506 41.8862 50.3547 41.3399 49.8109C41.1043 49.5902 40.894 49.3441 40.7129 49.077C40.5605 48.8598 40.4327 48.6265 40.3318 48.3813C40.2448 48.211 40.1782 48.0312 40.1333 47.8454C40.0096 47.4143 39.9474 46.9679 39.9484 46.5194C39.9484 46.3403 39.9589 46.1614 39.9799 45.9835C40.0821 44.9363 40.5632 43.9622 41.3331 43.2436C42.2429 42.378 43.4514 41.8951 44.7082 41.8951C45.965 41.8951 47.1736 42.378 48.0833 43.2436C48.6659 43.7852 49.084 44.4796 49.2899 45.2473C49.3912 45.5936 49.4465 45.9516 49.4546 46.3122C49.4602 46.3812 49.4602 46.4504 49.4546 46.5194C49.4553 46.9258 49.4038 47.3306 49.3012 47.7239C49.3891 47.6923 49.4771 47.6698 49.5651 47.6361C52.2314 46.7362 54.6905 45.3132 56.7979 43.4507C58.8671 41.5894 60.501 39.2966 61.5837 36.7348C62.7354 34.0931 63.3097 31.0838 63.3067 27.7067C63.336 24.3678 62.7542 21.387 61.6017 18.7371Z" fill="#151C26"/>
</svg>
