<svg width="27" height="27" viewBox="0 0 27 27" fill="none" xmlns="http://www.w3.org/2000/svg">
<rect x="0.503906" y="0.010498" width="26.3995" height="26.3995" rx="13.1997" fill="#424848"/>
<path d="M13.7706 6.45508C9.53843 6.45508 6.69727 9.31104 6.69727 13.188C6.69727 17.1094 9.50883 19.9654 13.7114 19.9654C14.8064 19.9654 16.079 19.7286 16.9817 19.2699L16.5821 18.0861C15.6795 18.5448 14.614 18.7372 13.7114 18.7372C10.3079 18.7372 8.05865 16.4583 8.05865 13.188C8.05865 9.96214 10.3375 7.66849 13.7706 7.66849C17.1444 7.66849 19.4529 9.79936 19.4529 12.9661C19.4529 14.7122 19.009 15.6445 18.2099 15.6445C17.7955 15.6445 17.4404 15.3929 17.4404 14.6382V9.60699H15.7979V10.5688C15.2207 9.87335 14.3625 9.5182 13.3266 9.5182C11.2846 9.5182 9.77519 11.072 9.77519 13.262C9.77519 15.4817 11.2846 17.0354 13.3266 17.0354C14.5105 17.0354 15.4131 16.5915 15.9902 15.748C16.2418 16.5915 16.9225 17.0354 17.8695 17.0354C19.6453 17.0354 20.7107 15.4965 20.7107 12.9365C20.7107 9.16306 17.8547 6.45508 13.7706 6.45508ZM13.6374 15.6001C12.35 15.6001 11.4473 14.6974 11.4473 13.262C11.4473 11.8414 12.35 10.9536 13.6374 10.9536C14.8804 10.9536 15.8275 11.7971 15.8275 13.262C15.8275 14.7418 14.8804 15.6001 13.6374 15.6001Z" fill="white"/>
</svg>
