<svg width="24" height="26" viewBox="0 0 24 26" fill="none" xmlns="http://www.w3.org/2000/svg">
<g opacity="0.75">
<path d="M22.1876 2.66821H15.5493C15.2439 2.66821 14.9961 2.91588 14.9961 3.22102C14.9961 3.52617 15.2439 3.77383 15.5493 3.77383H22.1876C22.493 3.77383 22.7408 3.52617 22.7408 3.22102C22.7408 2.91588 22.493 2.66821 22.1876 2.66821Z" fill="#424848"/>
<path d="M22.5799 2.83044L20.367 0.621944C20.1513 0.406618 19.8005 0.406618 19.5848 0.621944C19.369 0.83727 19.369 1.18733 19.5848 1.40266L21.406 3.22025L19.5837 5.03893C19.3679 5.25425 19.3679 5.60431 19.5837 5.81964C19.6921 5.92673 19.8337 5.98088 19.9754 5.98088C20.117 5.98088 20.2586 5.92679 20.367 5.81964L22.5799 3.61115C22.7956 3.39577 22.7956 3.04576 22.5799 2.83044Z" fill="#424848"/>
<path d="M7.80482 2.66821H1.16649C0.86113 2.66821 0.613281 2.91588 0.613281 3.22102C0.613281 3.52617 0.86113 3.77383 1.16649 3.77383H7.80482C8.11018 3.77383 8.35803 3.52617 8.35803 3.22102C8.35803 2.91588 8.11018 2.66821 7.80482 2.66821Z" fill="#424848"/>
<path d="M1.94892 3.22022L3.77003 1.40265C3.98577 1.18732 3.98577 0.837267 3.77003 0.621942C3.55428 0.406618 3.20355 0.406618 2.9878 0.621942L0.775088 2.83047C0.559346 3.04579 0.559346 3.39585 0.775088 3.61117L2.98785 5.81964C3.0963 5.92674 3.23788 5.98088 3.37951 5.98088C3.52114 5.98088 3.66272 5.92679 3.77008 5.81856C3.98582 5.60323 3.98582 5.25317 3.77008 5.03785L1.94892 3.22022Z" fill="#424848"/>
<path d="M21.6355 11.5038C21.1807 11.5038 20.757 11.6419 20.4051 11.8771C20.102 11.018 19.2799 10.3995 18.3163 10.3995C17.8616 10.3995 17.4378 10.5376 17.086 10.7728C16.7828 9.91365 15.9608 9.29521 14.9971 9.29521C14.5944 9.29521 14.216 9.40345 13.8907 9.59229V5.98223C13.8907 4.76414 12.8983 3.77356 11.6779 3.77356C10.4576 3.77356 9.46515 4.76414 9.46515 5.98223V15.369L7.54226 13.9301C6.40269 13.0764 4.7807 13.1902 3.77059 14.1973C3.12335 14.8434 3.12335 15.8936 3.77059 16.5396L11.6492 24.4046C12.5896 25.3433 13.841 25.8601 15.1709 25.8601H17.7631C21.1177 25.8601 23.8483 23.1357 23.8483 19.7863V13.7125C23.8483 12.4944 22.8558 11.5038 21.6355 11.5038ZM22.7419 19.7863C22.7419 22.5261 20.5081 24.7557 17.7631 24.7557H15.1709C14.1353 24.7557 13.1628 24.3538 12.4314 23.6238L4.55282 15.7588C4.33707 15.5435 4.33707 15.1934 4.55282 14.9781C4.89579 14.6368 5.35383 14.4612 5.81411 14.4612C6.18808 14.4612 6.56424 14.5772 6.87956 14.8135L9.68649 16.915C9.85468 17.0409 10.0804 17.0597 10.2663 16.9669C10.4532 16.8731 10.5716 16.682 10.5716 16.4733V5.98223C10.5716 5.37373 11.0673 4.87792 11.678 4.87792C12.2887 4.87792 12.7844 5.37378 12.7844 5.98223V14.2647C12.7844 14.5695 13.0322 14.8169 13.3376 14.8169C13.6429 14.8169 13.8908 14.5695 13.8908 14.2647V11.5039C13.8908 10.8954 14.3864 10.3996 14.9972 10.3996C15.6079 10.3996 16.1035 10.8954 16.1035 11.5039V14.2647C16.1035 14.5695 16.3514 14.8169 16.6568 14.8169C16.9621 14.8169 17.21 14.5695 17.21 14.2647V12.6082C17.21 11.9997 17.7056 11.5039 18.3163 11.5039C18.9271 11.5039 19.4227 11.9997 19.4227 12.6082V14.2647C19.4227 14.5695 19.6706 14.8169 19.9759 14.8169C20.2813 14.8169 20.5291 14.5695 20.5291 14.2647V13.7125C20.5291 13.104 21.0248 12.6082 21.6355 12.6082C22.2462 12.6082 22.7419 13.104 22.7419 13.7125V19.7863Z" fill="#424848"/>
</g>
</svg>
