<svg width="28" height="27" viewBox="0 0 28 27" fill="none" xmlns="http://www.w3.org/2000/svg">
<rect x="0.709961" y="0.010498" width="26.3995" height="26.3995" rx="13.1997" fill="#419FD9"/>
<path fill-rule="evenodd" clip-rule="evenodd" d="M16.69 20.6745C17.6126 21.1238 17.9586 20.1823 17.9586 20.1823L20.3997 6.53045C20.3804 5.61034 19.2656 6.16669 19.2656 6.16669L5.59946 12.1367C5.59946 12.1367 4.94594 12.3935 5.0036 12.8428C5.06127 13.2922 5.58023 13.5062 5.58023 13.5062L9.0208 14.7901C9.0208 14.7901 10.0587 18.5775 10.2702 19.305C10.4624 20.0111 10.6354 20.0325 10.6354 20.0325C10.8276 20.1181 11.0006 19.9683 11.0006 19.9683L13.2302 17.7216L16.69 20.6745ZM17.2855 8.94804C17.2855 8.94804 17.766 8.62707 17.7468 8.94804C17.7468 8.94804 17.8237 8.99083 17.5738 9.29041C17.3431 9.54718 11.9035 14.9823 11.1731 15.7098C11.1155 15.7526 11.077 15.8168 11.077 15.9024L10.8656 17.9138C10.8272 18.1277 10.5773 18.1491 10.5196 17.9566L9.61622 14.6613C9.57778 14.5329 9.61622 14.3831 9.73155 14.2975L17.2855 8.94804Z" fill="white"/>
</svg>
