<svg width="28" height="27" viewBox="0 0 28 27" fill="none" xmlns="http://www.w3.org/2000/svg">
<rect x="0.916016" y="0.010498" width="26.3995" height="26.3995" rx="13.1997" fill="#0DC143"/>
<path d="M20.0689 7.50206C18.6538 5.88035 16.6976 5 14.6998 5C10.4545 5 7.04162 8.84576 7.08324 13.5255C7.08324 15.0082 7.45783 16.4446 8.08214 17.742L7 22.1437L11.0372 20.9854C12.161 21.6804 13.4096 22.0047 14.6582 22.0047C18.8619 22.0047 22.2748 18.159 22.2748 13.4792C22.2748 11.2088 21.484 9.07743 20.0689 7.50206ZM14.6998 20.5684C13.5761 20.5684 12.4523 20.244 11.495 19.5953L11.2453 19.4563L8.83131 20.1514L9.45562 17.5103L9.28914 17.2323C7.45783 13.9425 8.33186 9.58711 11.3285 7.54839C14.3252 5.50968 18.196 6.4827 20.0273 9.81878C21.8586 13.1549 20.9845 17.464 17.9879 19.5027C17.0306 20.1977 15.8652 20.5684 14.6998 20.5684ZM18.3624 15.4252L17.9046 15.1936C17.9046 15.1936 17.2387 14.8692 16.8225 14.6376C16.7809 14.6376 16.7392 14.5912 16.6976 14.5912C16.5728 14.5912 16.4895 14.6376 16.4063 14.6839C16.4063 14.6839 16.3646 14.7302 15.782 15.4716C15.7403 15.5643 15.6571 15.6106 15.5739 15.6106H15.5322C15.4906 15.6106 15.4074 15.5643 15.3658 15.5179L15.1576 15.4252C14.6998 15.1936 14.2836 14.9156 13.9506 14.5449C13.8674 14.4522 13.7425 14.3596 13.6593 14.2669C13.368 13.9425 13.0766 13.5719 12.8685 13.1549L12.8269 13.0622C12.7853 13.0159 12.7853 12.9695 12.7437 12.8769C12.7437 12.7842 12.7436 12.6915 12.7853 12.6452C12.7853 12.6452 12.9518 12.4135 13.0766 12.2745C13.1599 12.1818 13.2015 12.0428 13.2847 11.9502C13.368 11.8112 13.4096 11.6258 13.368 11.4868C13.3263 11.2551 12.8269 10.0041 12.702 9.72611C12.6188 9.58711 12.5355 9.54077 12.4107 9.49444H12.2858C12.2026 9.49444 12.0777 9.49444 11.9529 9.49444C11.8696 9.49444 11.7864 9.54077 11.7031 9.54077L11.6615 9.58711C11.5783 9.63344 11.495 9.72611 11.4118 9.77245C11.3285 9.86512 11.2869 9.95778 11.2037 10.0505C10.9123 10.4675 10.7459 10.9771 10.7459 11.4868C10.7459 11.8575 10.8291 12.2282 10.954 12.5525L10.9956 12.6915C11.3702 13.5719 11.8696 14.3596 12.5355 15.0546L12.702 15.2399C12.8269 15.3789 12.9518 15.4716 13.035 15.6106C13.909 16.4446 14.9079 17.047 16.0317 17.3713C16.1565 17.4176 16.323 17.4176 16.4479 17.464C16.5728 17.464 16.7392 17.464 16.8641 17.464C17.0722 17.464 17.3219 17.3713 17.4884 17.2786C17.6133 17.186 17.6965 17.186 17.7797 17.0933L17.863 17.0006C17.9462 16.908 18.0295 16.8616 18.1127 16.7689C18.196 16.6763 18.2792 16.5836 18.3208 16.4909C18.4041 16.3056 18.4457 16.0739 18.4873 15.8423C18.4873 15.7496 18.4873 15.6106 18.4873 15.5179C18.4873 15.5179 18.4457 15.4716 18.3624 15.4252Z" fill="white"/>
</svg>
