<svg width="160" height="27" viewBox="0 0 160 27" fill="none" xmlns="http://www.w3.org/2000/svg">
<path d="M30.7324 13.9509C30.7324 6.66699 36.3922 1.3133 43.4626 1.3133C50.5319 1.3133 56.1917 6.66797 56.1917 13.9509C56.1917 21.2339 50.5319 26.5866 43.4626 26.5866C36.3696 26.5866 30.7324 21.2319 30.7324 13.9499V13.9509ZM52.1452 13.9509C52.1452 8.73306 48.5534 4.83026 43.4389 4.83026C38.3244 4.83026 34.7337 8.73306 34.7337 13.9509C34.7337 19.1688 38.3244 23.0716 43.4389 23.0716C48.5534 23.0716 52.1452 19.1688 52.1452 13.9509ZM58.4192 13.9509C58.4192 6.66699 64.079 1.3133 71.1484 1.3133C78.2177 1.3133 83.8775 6.66797 83.8775 13.9509C83.8775 21.2339 78.2177 26.5866 71.1484 26.5866C64.079 26.5866 58.4192 21.2319 58.4192 13.9499V13.9509ZM79.8546 13.9509C79.8546 8.73306 76.2629 4.83026 71.1484 4.83026C66.0339 4.83026 62.4421 8.73306 62.4421 13.9509C62.4421 19.1688 66.0339 23.0716 71.1484 23.0716C76.2629 23.0716 79.8546 19.1688 79.8546 13.9509ZM81.7642 1.6519H86.0371L93.0385 14.4933L99.9268 1.6519H103.995L94.9255 18.3951V26.246H91.0384V18.4404L81.7642 1.6519ZM101.427 26.245H97.5172L108.314 1.15187H108.541L119.384 26.2676H115.293L113.883 22.8196H102.858L101.427 26.245ZM108.382 9.63764L104.29 19.3705H112.406L108.382 9.63764ZM121.362 1.65092H125.248V22.8196H136.274L134.796 26.2676H121.385V1.65092H121.362ZM141.524 26.245H137.614L148.412 1.15187H148.64L159.482 26.2676H155.39L153.981 22.8196H142.956L141.524 26.245ZM148.48 9.63764L144.388 19.3705H152.503L148.48 9.63764ZM158.209 4.98774C157.993 5.20716 157.734 5.38052 157.449 5.49741C157.164 5.61429 156.858 5.67229 156.549 5.66791C155.89 5.66791 155.345 5.44151 154.89 4.98774C154.67 4.77208 154.497 4.51406 154.379 4.22931C154.262 3.94455 154.204 3.639 154.209 3.33114C154.209 2.69626 154.435 2.1293 154.89 1.67553C155.105 1.45421 155.363 1.27952 155.649 1.16233C155.934 1.04515 156.241 0.987983 156.549 0.99438C157.209 0.99438 157.754 1.22077 158.209 1.67553C158.664 2.12831 158.891 2.67362 158.891 3.33114C158.914 3.96603 158.664 4.53397 158.209 4.98774ZM155.14 1.90191C154.754 2.28777 154.549 2.76418 154.549 3.33114C154.549 3.89811 154.754 4.37451 155.14 4.76036C155.527 5.14621 156.004 5.35096 156.572 5.35096C157.141 5.35096 157.618 5.14621 158.004 4.76036C158.391 4.37451 158.596 3.87547 158.596 3.33114C158.596 2.76418 158.391 2.31041 158.004 1.90191C157.818 1.71108 157.595 1.56026 157.349 1.4587C157.103 1.35714 156.838 1.30699 156.572 1.31133C156.306 1.30722 156.041 1.35748 155.795 1.45902C155.549 1.56057 155.326 1.71127 155.14 1.90191ZM156.504 2.03775C156.822 2.03775 157.05 2.06039 157.209 2.12929C157.482 2.24249 157.618 2.44624 157.618 2.78682C157.618 3.01321 157.527 3.19531 157.368 3.28587C157.277 3.35477 157.164 3.37642 157.004 3.39906C157.091 3.4047 157.175 3.4302 157.25 3.47356C157.324 3.51692 157.388 3.57698 157.436 3.64907C157.518 3.76197 157.565 3.89593 157.572 4.03492V4.39716C157.572 4.46606 157.595 4.51134 157.595 4.53398L157.618 4.55662H157.186V4.21604C157.186 3.92075 157.095 3.71699 156.936 3.62545C156.778 3.56085 156.607 3.53034 156.436 3.53588H156.072V4.55662H155.617V2.03775H156.504ZM157.004 2.44624C156.891 2.37832 156.709 2.35569 156.459 2.35569H156.072V3.28587H156.482C156.664 3.28587 156.822 3.26323 156.914 3.21696C157.095 3.15003 157.186 3.01321 157.186 2.80946C157.164 2.62834 157.117 2.51416 157.004 2.44624Z" fill="#DFE0DE"/>
<path d="M12.8434 9.47939C15.0778 9.47939 16.8889 7.6712 16.8889 5.44074C16.8879 4.36875 16.4611 3.34107 15.7024 2.58371C14.9438 1.82635 13.9154 1.40132 12.8434 1.4021C11.7714 1.40132 10.743 1.82635 9.98433 2.58371C9.22567 3.34107 8.7989 4.36875 8.79785 5.44074C8.7989 6.51273 9.22567 7.54041 9.98433 8.29778C10.743 9.05514 11.7714 9.48017 12.8434 9.47939Z" fill="#EAB447"/>
<path d="M4.04553 15.7885C6.27993 15.7885 8.09205 13.9803 8.09205 11.7498C8.09101 10.6778 7.66422 9.65016 6.90557 8.89279C6.14691 8.13543 5.11851 7.7104 4.04652 7.71118C3.51564 7.71067 2.98986 7.81472 2.49919 8.0174C2.00852 8.22008 1.56258 8.51743 1.18683 8.89245C0.811075 9.26747 0.512864 9.71283 0.309228 10.2031C0.105592 10.6934 0.000516796 11.219 0 11.7498C0.00104377 12.8218 0.42782 13.8495 1.18648 14.6069C1.94513 15.3642 2.97354 15.7893 4.04553 15.7885Z" fill="#881433"/>
<path d="M7.36487 26.1781C9.59926 26.1781 11.4104 24.3699 11.4104 22.1395C11.4094 21.0675 10.9826 20.0398 10.2239 19.2824C9.46526 18.5251 8.43686 18.1 7.36487 18.1008C6.29288 18.1 5.26447 18.5251 4.50581 19.2824C3.74716 20.0398 3.32038 21.0675 3.31934 22.1395C3.32038 23.2115 3.74716 24.2391 4.50581 24.9965C5.26447 25.7539 6.29288 26.1789 7.36487 26.1781Z" fill="#8661A5"/>
<path d="M22.3674 22.1395C22.3641 23.2107 21.9365 24.2371 21.1784 24.9939C20.4202 25.7508 19.3932 26.1766 18.3219 26.1781C17.2505 26.1768 16.2232 25.7512 15.4648 24.9943C14.7064 24.2374 14.2788 23.2109 14.2754 22.1395C14.2788 21.0682 14.7063 20.0419 15.4645 19.285C16.2226 18.5282 17.2497 18.1024 18.3209 18.1008C19.3924 18.1021 20.4197 18.5278 21.178 19.2847C21.9364 20.0416 22.3641 21.068 22.3674 22.1395Z" fill="#82A240"/>
<path d="M21.6403 15.7885C22.1711 15.789 22.6969 15.6849 23.1876 15.4823C23.6783 15.2796 24.1242 14.9822 24.4999 14.6072C24.8757 14.2322 25.1739 13.7868 25.3775 13.2966C25.5812 12.8063 25.6863 12.2807 25.6868 11.7498C25.6863 11.219 25.5812 10.6934 25.3775 10.2031C25.1739 9.71283 24.8757 9.26747 24.4999 8.89245C24.1242 8.51743 23.6783 8.22008 23.1876 8.0174C22.6969 7.81472 22.1711 7.71067 21.6403 7.71118C20.5683 7.7104 19.5399 8.13543 18.7812 8.89279C18.0225 9.65016 17.5958 10.6778 17.5947 11.7498C17.5958 12.8218 18.0225 13.8495 18.7812 14.6069C19.5399 15.3642 20.5683 15.7893 21.6403 15.7885Z" fill="#97CFE2"/>
</svg>
