<svg width="160" height="49" viewBox="0 0 160 49" fill="none" xmlns="http://www.w3.org/2000/svg">
<path d="M99.5337 34.9168C99.5028 34.8417 99.4474 34.7793 99.3767 34.7396C99.3059 34.6998 99.2238 34.685 99.1436 34.6976L99.1 34.7206C98.6239 34.8296 98.2556 34.7848 97.9951 34.6093C97.6268 34.3683 97.4535 33.7981 97.4535 32.9203V24.8222C97.4535 21.6623 95.5684 20.0606 91.8406 20.0606C88.5029 20.0606 85.9018 21.6405 85.9018 23.6587C85.9018 24.6914 86.5305 25.4372 87.4622 25.5462C88.0692 25.6127 88.6543 25.3488 89.0662 24.9094C89.8901 24.0546 89.7811 23.0231 88.784 21.9033C89.3691 21.2894 90.4098 20.9165 91.6019 20.9165C93.5307 20.9165 94.3545 22.057 94.3545 24.7568V26.7968C93.899 26.9288 93.4871 27.0607 92.7068 27.2581C91.1464 27.631 88.979 28.114 87.375 29.0135C86.0314 29.7375 85.3602 30.901 85.3602 32.4591C85.3602 34.1492 86.4651 36.1238 89.586 36.1238C91.3415 36.1238 92.9019 35.2897 94.5059 33.5124C94.6356 35.3562 95.3515 36.0584 97.0416 36.0584C97.8654 36.0584 98.5149 35.8611 99.2951 35.487C99.5119 35.378 99.6209 35.1359 99.5337 34.9168ZM94.3763 32.4373C93.9862 32.9639 92.7505 34.5439 91.2118 34.5439C89.1316 34.5439 88.6761 33.0741 88.6761 31.8441C88.6761 29.8247 90.2148 28.8816 94.3763 27.8731V32.4373ZM134.406 36.1674C129.984 36.1674 126.647 32.7 126.647 28.114C126.647 23.6163 130.136 19.9504 134.406 19.9504C138.741 19.9504 142.143 23.4843 142.143 27.982C142.143 33.0523 138.134 36.1674 134.406 36.1674ZM134.233 20.8282C132.325 20.8282 130.115 21.6405 130.115 28.0486C130.115 32.9421 131.566 35.3115 134.535 35.3115C137.375 35.3115 138.653 33.0741 138.653 28.0486C138.653 23.1987 137.202 20.8282 134.233 20.8282ZM65.9627 20.2579C65.9627 23.988 65.0529 26.0292 60.3498 26.0292H57.8577V14.7712H60.4576C65.3122 14.7712 65.9627 17.5364 65.9627 20.2579ZM57.8577 32.9203V27.0607H60.1111C63.4706 27.0607 66.0499 26.3585 67.7182 24.9541C69.4737 23.4832 69.842 21.6187 69.842 20.3233C69.842 14.9685 64.6627 13.8499 60.328 13.8499H60.3498H51.5506C51.3555 13.8499 51.1823 14.0036 51.1823 14.2009V14.2227C51.1823 14.3983 51.2901 14.5738 51.4634 14.6392C52.2436 14.9249 54.3674 14.5302 54.3674 16.8124V32.9421C54.3674 34.1044 53.8476 34.9386 51.4634 35.1589C51.3752 35.1663 51.293 35.2065 51.2329 35.2714C51.1728 35.3364 51.1392 35.4215 51.1387 35.51V35.5754C51.1387 35.7727 51.2901 35.9265 51.507 35.9265H60.9131C61.1082 35.9265 61.2814 35.7727 61.2814 35.5754V35.51C61.2797 35.4182 61.2428 35.3306 61.1783 35.2652C61.1138 35.1999 61.0267 35.1618 60.9349 35.1589C58.3774 34.9386 57.8577 34.1492 57.8577 32.9203V27.0825V32.9203ZM76.9947 19.9504C72.8986 19.9504 69.5609 23.6587 69.5609 28.2023C69.5609 32.8102 72.6817 36.1456 76.9947 36.1456C80.6135 36.1456 82.369 33.9954 83.3879 32.3708C83.4137 32.3324 83.4314 32.2891 83.4399 32.2436C83.4484 32.1982 83.4475 32.1514 83.4373 32.1063C83.4271 32.0612 83.4078 32.0186 83.3806 31.9812C83.3533 31.9438 83.3187 31.9124 83.2789 31.8889L83.2364 31.8453C83.1604 31.7911 83.0666 31.7677 82.974 31.7798C82.8814 31.7919 82.7968 31.8387 82.7373 31.9107C81.4156 33.5789 80.2452 34.5439 78.2293 34.5439C75.6936 34.5439 72.9629 32.7884 72.9629 27.8948V27.8512V27.0596H83.3661C83.3879 27.0596 83.4097 27.0389 83.4097 27.0171V26.9288C83.5611 24.9094 82.976 23.1103 81.8057 21.8379C80.6789 20.609 78.9877 19.9504 76.9947 19.9504ZM73.0282 26.051C73.3748 22.6938 74.6747 20.85 76.7343 20.85C77.7749 20.85 78.5333 21.1357 79.0749 21.7277C79.8115 22.5401 80.1374 23.988 80.0066 26.051H73.0282ZM120.08 26.2266C117.241 25.4372 116.135 24.6248 116.135 23.3524C116.135 21.9033 117.284 20.8511 118.866 20.8511C120.73 20.8511 121.532 21.7495 123.505 25.0413L123.526 25.0861C123.526 25.1079 123.547 25.1079 123.547 25.1079H123.829C124.024 25.1079 124.198 24.9541 124.198 24.7568V19.9952C124.198 19.9722 124.176 19.9493 124.176 19.9493H123.808C123.754 19.948 123.7 19.9594 123.651 19.9825C123.602 20.0056 123.56 20.0398 123.526 20.0824L122.898 20.8511C122.096 20.4117 120.816 19.9504 119.516 19.9504C116.244 19.9504 113.968 21.9698 113.968 24.844C113.968 27.5438 115.767 28.5752 118.866 29.4094C121.879 30.2424 122.962 31.0983 122.962 32.6794C122.962 34.4567 121.25 35.2461 120.014 35.2461C117.739 35.2461 116.786 34.4119 114.596 30.5063L114.575 30.4627C114.575 30.4397 114.553 30.4397 114.553 30.4397H114.272C114.077 30.4397 113.903 30.5935 113.903 30.7908V36.1032C113.903 36.1238 113.925 36.1456 113.968 36.1456H114.337C114.423 36.1456 114.532 36.102 114.596 36.0366L115.594 35.0487C116.764 35.7727 118.498 36.1456 119.624 36.1456C121.315 36.1456 122.724 35.5972 123.656 34.5875C124.502 33.6879 124.956 32.3937 124.956 30.9664C124.956 28.5087 123.634 27.2363 120.08 26.2277V26.2266ZM102.871 34.0172C102.871 34.8296 102.655 35.0923 101.355 35.1807C101.16 35.2025 101.008 35.3562 101.008 35.5318C101.008 35.7291 101.16 35.8829 101.376 35.8829H107.813C107.859 35.8832 107.905 35.8743 107.947 35.8567C107.99 35.8391 108.028 35.8132 108.061 35.7804C108.093 35.7477 108.118 35.7089 108.135 35.6661C108.152 35.6234 108.161 35.5777 108.16 35.5318C108.161 35.4858 108.152 35.4401 108.135 35.3974C108.118 35.3547 108.093 35.3158 108.061 35.2831C108.028 35.2504 107.99 35.2244 107.947 35.2068C107.905 35.1892 107.859 35.1803 107.813 35.1807C106.318 35.1141 105.949 34.8732 105.949 34.0172V24.603C107.011 22.8475 107.77 21.9251 109.049 21.6405C108.981 21.8685 108.944 22.1048 108.94 22.3427C108.94 23.4832 109.742 24.2955 110.89 24.2955C112.017 24.2955 112.797 23.505 112.797 22.3427C112.797 21.2665 112.126 19.994 110.219 19.994C108.659 19.994 107.163 20.8936 105.884 23.0231V20.609C105.884 20.3681 105.689 20.1696 105.429 20.1696L101.376 20.2797C101.33 20.2794 101.285 20.2883 101.242 20.3059C101.2 20.3235 101.161 20.3494 101.129 20.3821C101.097 20.4149 101.071 20.4537 101.054 20.4965C101.037 20.5392 101.029 20.5849 101.03 20.6308V20.6744C101.03 20.85 101.16 21.0037 101.333 21.0255C102.676 21.2229 102.871 21.8597 102.871 22.5171V34.0172ZM147.387 20.1478C147.478 20.1515 147.564 20.1911 147.626 20.2579C147.661 20.2923 147.689 20.3334 147.707 20.3788C147.726 20.4241 147.735 20.4728 147.735 20.5218L147.757 23.1986C147.757 23.1986 149.078 20.0388 153.37 20.0388H153.413C156.079 20.0388 157.617 21.7495 157.617 24.712V33.9943C157.617 34.8078 157.834 35.0705 159.134 35.1589C159.329 35.1807 159.482 35.3344 159.482 35.51C159.482 35.7073 159.329 35.8611 159.112 35.8611H153.326C153.131 35.8611 152.958 35.7073 152.958 35.51C152.958 35.3126 153.109 35.1589 153.282 35.1359C154.345 35.0487 154.496 34.786 154.496 33.9736V25.6345C154.496 22.8694 153.716 21.7943 151.678 21.7943C150.313 21.7943 149.186 22.9784 148.493 23.988C148.493 23.988 148.147 24.4275 147.757 25.2834L147.799 34.0172C147.799 34.8296 147.972 35.0923 148.991 35.1807C149.165 35.2025 149.317 35.3562 149.317 35.5318C149.318 35.5806 149.309 35.6291 149.29 35.6744C149.272 35.7197 149.245 35.7609 149.21 35.7956C149.176 35.8303 149.135 35.8578 149.09 35.8765C149.045 35.8953 148.996 35.9048 148.948 35.9047H143.205C143.01 35.9047 142.837 35.7509 142.837 35.5536C142.836 35.5076 142.844 35.4619 142.861 35.4192C142.878 35.3765 142.904 35.3376 142.936 35.3049C142.968 35.2722 143.007 35.2462 143.049 35.2286C143.092 35.2111 143.137 35.2022 143.183 35.2025C144.483 35.1141 144.7 34.8514 144.7 34.039V22.5401C144.7 21.8815 144.505 21.2229 143.161 21.0255C143.077 21.0134 143 20.9711 142.944 20.9066C142.889 20.8421 142.858 20.7596 142.859 20.6744V20.6308C142.858 20.5849 142.866 20.5392 142.883 20.4965C142.9 20.4537 142.925 20.4149 142.958 20.3821C142.99 20.3494 143.029 20.3235 143.071 20.3059C143.113 20.2883 143.159 20.2794 143.205 20.2797L147.387 20.1478Z" fill="#3D3935"/>
<path d="M34.4292 3.84464C44.6156 9.63888 46.9987 22.6524 39.8907 35.7967C33.6708 47.3622 20.0595 52.3005 9.91673 46.4191C-0.204247 40.5158 -2.17658 24.1004 2.18 14.6426C8.50776 0.925722 23.1804 -2.56344 34.4292 3.84579V3.84464Z" fill="#007FA3"/>
<path d="M34.1911 13.8061C36.1853 15.9345 36.8129 19.1597 36.4664 21.8147C36.0763 24.8438 34.2347 27.6319 31.1999 29.4746C28.7939 30.9455 25.6088 31.5376 22.4879 31.5594C22.4661 32.0642 22.3571 33.7543 22.3147 34.0171C22.2493 34.4118 22.0978 34.6321 21.9246 34.8512C21.5769 35.2895 21.0136 35.5752 20.4284 35.729C20.0267 35.8432 19.6114 35.9022 19.1938 35.9045H19.0412C18.6947 35.8609 18.3264 35.7072 18.0878 35.4433C17.8495 35.1767 17.7116 34.8355 17.6977 34.4783L17.6758 34.149C17.6116 33.8633 17.2421 19.1827 17.3075 19.4454C17.3511 17.6899 20.1897 17.3825 21.7502 17.6899C23.29 17.9974 22.8998 19.8849 22.8562 22.1888C22.8562 22.1888 22.7908 25.2179 22.6394 28.4213C24.6117 28.3548 26.1722 27.7845 27.6236 27.0605C30.5712 25.5908 32.1316 23.3522 32.1316 20.0604C32.1316 16.7675 28.9247 13.0591 22.9641 13.0591C17.0046 13.0591 14.4689 14.5519 11.6074 16.9223C10.958 17.449 10.4589 17.9974 9.98272 18.3485C9.50541 18.6996 8.24903 18.765 7.92318 17.9309C7.51127 16.9212 8.26969 15.8025 8.72634 15.2759C9.41821 14.4199 11.153 12.7081 13.06 11.7213C15.2492 10.5797 17.9145 9.35084 21.6423 9.26364C25.0018 9.17529 30.3337 9.46099 34.1693 13.7843L34.1911 13.8061ZM21.3176 38.0994C20.9258 37.7757 20.4383 37.5902 19.9304 37.5716C19.2581 37.5716 18.6075 37.9457 18.1968 38.5377C17.8491 39.0426 17.6977 39.6576 17.7849 40.2496C17.8491 40.6225 17.9799 40.9518 18.1968 41.1927C18.4343 41.4566 18.7819 41.6758 19.2363 41.8077C19.4967 41.8731 19.7572 41.9179 20.0165 41.9179C20.5799 41.9179 21.1008 41.7423 21.5127 41.413C21.967 41.0401 22.2275 40.4917 22.2275 39.8985C22.2275 39.2181 21.881 38.5377 21.3176 38.0994Z" fill="white"/>
</svg>
