<svg width="160" height="48" viewBox="0 0 160 48" fill="none" xmlns="http://www.w3.org/2000/svg">
<path d="M27.6271 11.665L31.004 5.79639C31.4763 4.97052 31.6044 3.99188 31.3606 3.07225C31.1168 2.15263 30.5207 1.36599 29.7013 0.882587C27.9999 -0.0991775 25.7931 0.484897 24.8094 2.1843L21.4335 8.05395C14.2293 5.76948 6.14789 8.71776 2.21385 15.5423C1.02218 17.5979 0.290962 19.8877 0.0706932 22.2535C-0.149576 24.6194 0.146358 27.0048 0.938058 29.2451L7.15756 18.4367C8.56691 15.9669 10.9331 14.1608 13.698 13.4183C16.4629 12.6747 19.3863 13.0465 21.8591 14.5067C26.9892 17.4809 28.7703 24.0672 25.7931 29.2182C22.816 34.3712 16.2237 36.1234 11.0926 33.1492L14.6808 26.9347C16.3832 27.9175 18.5889 27.3334 19.5726 25.634C20.0447 24.8081 20.1727 23.8295 19.9289 22.91C19.6851 21.9904 19.0892 21.2038 18.2699 20.7202C16.5685 19.7384 14.3628 20.3225 13.3791 22.0219L1.94773 41.8595C1.47572 42.6853 1.34776 43.6637 1.59155 44.5831C1.83534 45.5025 2.43127 46.2889 3.25044 46.7723C4.95183 47.7551 7.15756 47.171 8.14232 45.4716L11.5182 39.603C18.7224 41.8864 26.8038 38.9392 30.7378 32.1136C34.6988 25.2363 33.2097 16.7642 27.6271 11.665ZM48.283 23.6685C49.8778 23.6685 50.9143 22.9508 50.9143 21.1986C50.9143 19.4464 49.8519 18.7567 48.283 18.7567H46.0763V23.6685H48.283ZM42.833 15.914H48.3628C51.5792 15.914 54.2374 17.5078 54.2374 21.1986C54.2374 24.8905 51.5792 26.5111 48.3628 26.5111H46.0763V31.6891H42.833V15.914ZM59.0226 15.914H69.4702V18.7826H62.2659V22.3937H68.619V25.1825H62.2659V28.8733H69.7891V31.7419H59.0226V15.914ZM75.2651 15.914H78.5084V28.8733H85.6598V31.7419H75.2651V15.914ZM102.301 23.828C102.301 20.8807 100.36 18.6231 97.4619 18.6231C94.5914 18.6231 92.6239 20.8807 92.6239 23.828C92.6239 26.7762 94.5645 29.0328 97.4619 29.0328C100.36 29.0328 102.301 26.7762 102.301 23.828ZM89.3008 23.828C89.3008 19.1534 92.9169 15.7287 97.4888 15.7287C102.035 15.7287 105.65 19.1803 105.65 23.828C105.65 28.5026 102.035 31.9283 97.4888 31.9283C92.9428 31.9283 89.3008 28.5016 89.3008 23.828ZM113.652 18.7826H109.159V15.914H121.414V18.7826H116.922V31.715H113.678V18.7826H113.652ZM137.896 23.828C137.896 20.8807 135.955 18.6231 133.058 18.6231C130.187 18.6231 128.22 20.8807 128.22 23.828C128.22 26.7762 130.16 29.0328 133.058 29.0328C135.955 29.0328 137.896 26.7762 137.896 23.828ZM124.897 23.828C124.897 19.1534 128.512 15.7287 133.085 15.7287C137.631 15.7287 141.246 19.1803 141.246 23.828C141.246 28.5026 137.631 31.9283 133.085 31.9283C128.512 31.9283 124.897 28.5016 124.897 23.828ZM151.188 24.3861C150.39 23.6426 149.3 22.2342 149.3 22.2342C149.3 22.2342 149.539 23.9874 149.539 25.1297V31.7419H146.509V15.8084H146.828L154.803 23.2967C155.574 24.0143 156.664 25.4476 156.664 25.4476C156.664 25.4476 156.452 23.6685 156.452 22.5801V15.9669H159.482V31.9023H159.163L151.188 24.3871V24.3861Z" fill="#181A1D"/>
</svg>
