<svg width="16" height="16" viewBox="0 0 16 16" fill="none" xmlns="http://www.w3.org/2000/svg">
<path d="M15.2403 8.75969C15.6599 8.75969 16 8.41957 16 8C16 7.58043 15.6599 7.24031 15.2403 7.24031H8.75969L8.75969 0.759693C8.75969 0.340126 8.41957 0 8 0C7.58043 0 7.24031 0.340126 7.24031 0.759693V7.24031H0.759693C0.340126 7.24031 -2.50581e-07 7.58043 0 8C2.50581e-07 8.41957 0.340126 8.75969 0.759693 8.75969H7.24031V15.2403C7.24031 15.6599 7.58043 16 8 16C8.41957 16 8.75969 15.6599 8.75969 15.2403V8.75969H15.2403Z" fill="#424848"/>
</svg>
