<svg width="21" height="20" viewBox="0 0 21 20" fill="none" xmlns="http://www.w3.org/2000/svg">
<path d="M10.6364 6.15403C11.0661 6.15403 11.4145 5.80964 11.4145 5.3848C11.4145 4.95997 11.0661 4.61557 10.6364 4.61557C10.2066 4.61557 9.85828 4.95997 9.85828 5.3848C9.85828 5.80964 10.2066 6.15403 10.6364 6.15403Z" fill="#424848"/>
<path d="M5.96777 15.3848C6.3975 15.3848 6.74587 15.0404 6.74587 14.6156C6.74587 14.1907 6.3975 13.8463 5.96777 13.8463C5.53803 13.8463 5.18967 14.1907 5.18967 14.6156C5.18967 15.0404 5.53803 15.3848 5.96777 15.3848Z" fill="#424848"/>
<path d="M6.74587 10.0002C6.74587 10.425 6.3975 10.7694 5.96777 10.7694C5.53803 10.7694 5.18967 10.425 5.18967 10.0002C5.18967 9.57535 5.53803 9.23096 5.96777 9.23096C6.3975 9.23096 6.74587 9.57535 6.74587 10.0002Z" fill="#424848"/>
<path d="M5.96777 6.15403C6.3975 6.15403 6.74587 5.80964 6.74587 5.3848C6.74587 4.95997 6.3975 4.61557 5.96777 4.61557C5.53803 4.61557 5.18967 4.95997 5.18967 5.3848C5.18967 5.80964 5.53803 6.15403 5.96777 6.15403Z" fill="#424848"/>
<path d="M16.0831 14.6156C16.0831 15.0404 15.7347 15.3848 15.305 15.3848C14.8753 15.3848 14.5269 15.0404 14.5269 14.6156C14.5269 14.1907 14.8753 13.8463 15.305 13.8463C15.7347 13.8463 16.0831 14.1907 16.0831 14.6156Z" fill="#424848"/>
<path d="M15.305 10.7694C15.7347 10.7694 16.0831 10.425 16.0831 10.0002C16.0831 9.57535 15.7347 9.23096 15.305 9.23096C14.8753 9.23096 14.5269 9.57535 14.5269 10.0002C14.5269 10.425 14.8753 10.7694 15.305 10.7694Z" fill="#424848"/>
<path d="M16.0831 5.3848C16.0831 5.80964 15.7347 6.15403 15.305 6.15403C14.8753 6.15403 14.5269 5.80964 14.5269 5.3848C14.5269 4.95997 14.8753 4.61557 15.305 4.61557C15.7347 4.61557 16.0831 4.95997 16.0831 5.3848Z" fill="#424848"/>
<path d="M10.6364 15.3848C11.0661 15.3848 11.4145 15.0404 11.4145 14.6156C11.4145 14.1907 11.0661 13.8463 10.6364 13.8463C10.2066 13.8463 9.85828 14.1907 9.85828 14.6156C9.85828 15.0404 10.2066 15.3848 10.6364 15.3848Z" fill="#424848"/>
<path fill-rule="evenodd" clip-rule="evenodd" d="M0.52124 2.85714C0.52124 1.27919 1.81518 0 3.41134 0H17.8618C19.458 0 20.7519 1.27919 20.7519 2.85714V17.1429C20.7519 18.7208 19.458 20 17.8618 20H3.41133C1.81518 20 0.52124 18.7208 0.52124 17.1429V2.85714ZM3.41134 1.53846H17.8618C18.5985 1.53846 19.1957 2.12886 19.1957 2.85714V17.1429C19.1957 17.8711 18.5985 18.4615 17.8618 18.4615H3.41133C2.67465 18.4615 2.07745 17.8711 2.07745 17.1429V2.85714C2.07745 2.12886 2.67465 1.53846 3.41134 1.53846Z" fill="#424848"/>
</svg>
