<svg width="15" height="15" viewBox="0 0 15 15" fill="none" xmlns="http://www.w3.org/2000/svg">
<path d="M14.7162 1.65436C15.0946 1.2759 15.0946 0.662301 14.7162 0.283843C14.3377 -0.0946144 13.7241 -0.0946144 13.3456 0.283843L7.5 6.12948L1.65436 0.283843C1.2759 -0.0946142 0.662301 -0.0946142 0.283843 0.283843C-0.0946142 0.662301 -0.0946142 1.2759 0.283843 1.65436L6.12948 7.5L0.283843 13.3456C-0.0946144 13.7241 -0.0946144 14.3377 0.283843 14.7162C0.662301 15.0946 1.2759 15.0946 1.65436 14.7162L7.5 8.87052L13.3456 14.7162C13.7241 15.0946 14.3377 15.0946 14.7162 14.7162C15.0946 14.3377 15.0946 13.7241 14.7162 13.3456L8.87052 7.5L14.7162 1.65436Z" fill="#FF8383"/>
</svg>
