<svg width="16" height="15" viewBox="0 0 16 15" fill="none" xmlns="http://www.w3.org/2000/svg">
<path d="M14.2783 14.7161C14.6567 15.0946 15.2703 15.0946 15.6488 14.7161C16.0272 14.3376 16.0272 13.724 15.6488 13.3456L9.80313 7.49994L15.6488 1.6543C16.0272 1.27584 16.0272 0.662241 15.6488 0.283784C15.2703 -0.0946741 14.6567 -0.0946738 14.2783 0.283784L8.43262 6.12942L2.58698 0.283784C2.20852 -0.0946739 1.59492 -0.0946737 1.21646 0.283784C0.838004 0.662241 0.838003 1.27584 1.21646 1.6543L7.0621 7.49994L1.21646 13.3456C0.838004 13.724 0.838003 14.3376 1.21646 14.7161C1.59492 15.0946 2.20852 15.0946 2.58698 14.7161L8.43262 8.87046L14.2783 14.7161Z" fill="#424848"/>
</svg>
