<svg width="14" height="17" viewBox="0 0 14 17" fill="none" xmlns="http://www.w3.org/2000/svg">
<mask id="path-1-inside-1_421_386" fill="white">
<path d="M0 7.80838C0 6.45062 0 5.77174 0.274461 5.175C0.548923 4.57826 1.06437 4.13645 2.09525 3.25284L3.09525 2.39569C4.95857 0.798565 5.89023 0 7 0C8.10977 0 9.04143 0.798564 10.9047 2.39569L11.9047 3.25284C12.9356 4.13645 13.4511 4.57826 13.7255 5.175C14 5.77174 14 6.45062 14 7.80838V12.0488C14 13.9344 14 14.8772 13.4142 15.463C12.8284 16.0488 11.8856 16.0488 10 16.0488H4C2.11438 16.0488 1.17157 16.0488 0.585786 15.463C0 14.8772 0 13.9344 0 12.0488V7.80838Z"/>
</mask>
<path d="M8.9 16.0488C8.9 16.3801 9.16863 16.6488 9.5 16.6488C9.83137 16.6488 10.1 16.3801 10.1 16.0488H8.9ZM3.9 16.0488C3.9 16.3801 4.16863 16.6488 4.5 16.6488C4.83137 16.6488 5.1 16.3801 5.1 16.0488H3.9ZM5.5 10.6488H8.5V9.44877H5.5V10.6488ZM8.9 11.0488V16.0488H10.1V11.0488H8.9ZM3.9 11.0488V16.0488H5.1V11.0488H3.9ZM8.5 10.6488C8.72091 10.6488 8.9 10.8279 8.9 11.0488H10.1C10.1 10.1651 9.38366 9.44877 8.5 9.44877V10.6488ZM5.5 9.44877C4.61634 9.44877 3.9 10.1651 3.9 11.0488H5.1C5.1 10.8279 5.27909 10.6488 5.5 10.6488V9.44877ZM3.09525 2.39569L3.8762 3.3068L3.8762 3.3068L3.09525 2.39569ZM10.9047 2.39569L10.1238 3.3068L10.1238 3.3068L10.9047 2.39569ZM11.9047 3.25284L12.6857 2.34173L12.6857 2.34173L11.9047 3.25284ZM2.09525 3.25284L1.3143 2.34173L1.3143 2.34173L2.09525 3.25284ZM12.8 7.80838V12.0488H15.2V7.80838H12.8ZM10 14.8488H4V17.2488H10V14.8488ZM1.2 12.0488V7.80838H-1.2V12.0488H1.2ZM2.8762 4.16394L3.8762 3.3068L2.3143 1.48459L1.3143 2.34173L2.8762 4.16394ZM10.1238 3.3068L11.1238 4.16394L12.6857 2.34173L11.6857 1.48459L10.1238 3.3068ZM3.8762 3.3068C4.83143 2.48804 5.46441 1.94839 5.99154 1.60024C6.49059 1.27064 6.76945 1.2 7 1.2L7 -1.2C6.12078 -1.2 5.37893 -0.871357 4.66887 -0.402396C3.9869 0.0480187 3.22239 0.706223 2.3143 1.48459L3.8762 3.3068ZM11.6857 1.48459C10.7776 0.706223 10.0131 0.0480186 9.33113 -0.402396C8.62107 -0.871357 7.87922 -1.2 7 -1.2L7 1.2C7.23055 1.2 7.50941 1.27064 8.00846 1.60024C8.53559 1.94839 9.16857 2.48804 10.1238 3.3068L11.6857 1.48459ZM4 14.8488C3.02327 14.8488 2.41144 14.8462 1.96535 14.7862C1.55379 14.7309 1.46709 14.6472 1.43431 14.6145L-0.262742 16.3115C0.290274 16.8645 0.967865 17.0737 1.64556 17.1648C2.28873 17.2513 3.09111 17.2488 4 17.2488V14.8488ZM-1.2 12.0488C-1.2 12.9577 -1.20255 13.76 -1.11608 14.4032C-1.02496 15.0809 -0.815758 15.7585 -0.262742 16.3115L1.43431 14.6145C1.40154 14.5817 1.31786 14.495 1.26252 14.0834C1.20255 13.6373 1.2 13.0255 1.2 12.0488H-1.2ZM12.8 12.0488C12.8 13.0255 12.7975 13.6373 12.7375 14.0834C12.6821 14.495 12.5985 14.5817 12.5657 14.6145L14.2627 16.3115C14.8158 15.7585 15.025 15.0809 15.1161 14.4032C15.2025 13.76 15.2 12.9577 15.2 12.0488H12.8ZM10 17.2488C10.9089 17.2488 11.7113 17.2513 12.3544 17.1648C13.0321 17.0737 13.7097 16.8645 14.2627 16.3115L12.5657 14.6145C12.5329 14.6472 12.4462 14.7309 12.0346 14.7862C11.5886 14.8462 10.9767 14.8488 10 14.8488V17.2488ZM15.2 7.80838C15.2 6.56044 15.2257 5.56481 14.8158 4.67357L12.6353 5.67643C12.7743 5.97867 12.8 6.3408 12.8 7.80838H15.2ZM11.1238 4.16394C12.2381 5.11903 12.4963 5.37419 12.6353 5.67643L14.8158 4.67357C14.4058 3.78234 13.6332 3.15388 12.6857 2.34173L11.1238 4.16394ZM1.2 7.80838C1.2 6.3408 1.22567 5.97867 1.36468 5.67643L-0.815754 4.67357C-1.22567 5.56481 -1.2 6.56044 -1.2 7.80838H1.2ZM1.3143 2.34173C0.366797 3.15388 -0.405843 3.78234 -0.815754 4.67357L1.36468 5.67643C1.50369 5.37419 1.76193 5.11903 2.8762 4.16394L1.3143 2.34173Z" fill="#72D772" mask="url(#path-1-inside-1_421_386)"/>
</svg>
