<svg width="15" height="15" viewBox="0 0 15 15" fill="none" xmlns="http://www.w3.org/2000/svg">
<path d="M1 11.4V8.8C1 6.73131 1.68482 4.74735 2.90381 3.28457C4.12279 1.82178 5.77609 1 7.5 1C9.22391 1 10.8772 1.82178 12.0962 3.28457C13.3152 4.74735 14 6.73131 14 8.8V11.4M12.375 14C11.4775 14 10.75 13.224 10.75 12.2667V9.66667C10.75 8.70937 11.4775 7.93333 12.375 7.93333C13.2725 7.93333 14 8.70937 14 9.66667V12.2667C14 13.224 13.2725 14 12.375 14ZM2.625 14C1.72754 14 1 13.224 1 12.2667V9.66667C1 8.70937 1.72754 7.93333 2.625 7.93333C3.52246 7.93333 4.25 8.70937 4.25 9.66667V12.2667C4.25 13.224 3.52246 14 2.625 14Z" stroke="#72D772" stroke-width="1.2" stroke-linecap="round" stroke-linejoin="round"/>
</svg>
