<svg width="14" height="11" viewBox="0 0 14 11" fill="none" xmlns="http://www.w3.org/2000/svg">
<g opacity="0.6">
<path d="M11.8273 5.84183H4.45463C4.10319 5.84183 3.81827 5.55691 3.81827 5.20547C3.81827 4.85403 4.10319 4.5691 4.45463 4.5691H11.8273L11.0046 3.74637C10.756 3.49789 10.756 3.09495 11.0046 2.84643C11.253 2.5979 11.6559 2.5979 11.9045 2.84643L13.8135 4.75539C13.8282 4.77011 13.8421 4.78551 13.8554 4.80163C13.8586 4.80558 13.8614 4.80982 13.8645 4.81385C13.8742 4.82619 13.8838 4.83858 13.8925 4.85165C13.895 4.85547 13.8971 4.8595 13.8996 4.86336C13.9084 4.87702 13.9169 4.89081 13.9247 4.90519C13.9261 4.90803 13.9274 4.91104 13.9289 4.91389C13.9369 4.92946 13.9446 4.94524 13.9513 4.96153C13.9522 4.96352 13.9528 4.96564 13.9536 4.96768C13.9605 4.98482 13.9669 5.00217 13.9723 5.02003C13.9731 5.02228 13.9734 5.02461 13.9741 5.0269C13.9792 5.04443 13.9839 5.06212 13.9875 5.08023C13.9886 5.08562 13.9891 5.09118 13.99 5.09661C13.9927 5.11163 13.9953 5.12664 13.9968 5.14196C13.9989 5.16296 14 5.18417 14 5.20547C14 5.22676 13.9989 5.24798 13.9968 5.26902C13.9953 5.28455 13.9926 5.29969 13.99 5.31484C13.9891 5.3201 13.9886 5.32549 13.9875 5.3307C13.9839 5.34899 13.9792 5.36685 13.974 5.38454C13.9734 5.38662 13.973 5.38883 13.9724 5.3909C13.9669 5.40885 13.9605 5.42637 13.9535 5.44368C13.9527 5.44555 13.9522 5.44754 13.9514 5.44941C13.9446 5.46583 13.9368 5.48169 13.9287 5.49735C13.9273 5.5001 13.9261 5.50299 13.9247 5.50575C13.9169 5.52021 13.9083 5.53413 13.8994 5.54792C13.897 5.55165 13.895 5.55559 13.8925 5.55924C13.8838 5.57235 13.8741 5.58482 13.8645 5.59721C13.8614 5.6012 13.8586 5.6054 13.8554 5.6093C13.8421 5.62538 13.8282 5.64082 13.8135 5.65555L11.9045 7.56451C11.7803 7.68881 11.6174 7.75092 11.4545 7.75092C11.2917 7.75092 11.1288 7.68881 11.0046 7.56451C10.7561 7.31599 10.7561 6.91309 11.0046 6.66456L11.8273 5.84183Z" fill="#424848"/>
<path d="M5.2055 0C6.94252 0 8.55862 0.861721 9.52865 2.30504C9.72465 2.5967 9.6471 2.9921 9.35544 3.18814C9.06373 3.38414 8.66838 3.30667 8.47229 3.01492C7.73916 1.92398 6.51793 1.27268 5.2055 1.27268C3.03698 1.27273 1.27273 3.03694 1.27273 5.2055C1.27273 7.37405 3.03698 9.13827 5.2055 9.13827C6.51407 9.13827 7.7333 8.4899 8.46699 7.40392C8.66379 7.11268 9.05927 7.03615 9.35056 7.23287C9.64176 7.42963 9.71838 7.82519 9.52161 8.11639C8.5509 9.55322 6.93742 10.411 5.2055 10.411C2.3352 10.411 9.53674e-07 8.07584 9.53674e-07 5.2055C9.53674e-07 2.33516 2.3352 0 5.2055 0Z" fill="#424848"/>
</g>
</svg>
