<svg width="14" height="14" viewBox="0 0 14 14" fill="none" xmlns="http://www.w3.org/2000/svg">
<mask id="path-1-inside-1_421_388" fill="white">
<path d="M14 7C14 3.70017 14 2.05025 12.9749 1.02513C11.9497 0 10.2998 0 7 0C3.70017 0 2.05025 0 1.02513 1.02513C0 2.05025 0 3.70017 0 7V12.25C0 13.075 0 13.4874 0.256282 13.7437C0.512563 14 0.925042 14 1.75 14H7C10.2998 14 11.9497 14 12.9749 12.9749C14 11.9497 14 10.2998 14 7Z"/>
</mask>
<path d="M4.375 6.4C4.04363 6.4 3.775 6.66863 3.775 7C3.775 7.33137 4.04363 7.6 4.375 7.6V6.4ZM9.625 7.6C9.95637 7.6 10.225 7.33137 10.225 7C10.225 6.66863 9.95637 6.4 9.625 6.4V7.6ZM7.6 4.375C7.6 4.04363 7.33137 3.775 7 3.775C6.66863 3.775 6.4 4.04363 6.4 4.375L7.6 4.375ZM6.4 9.625C6.4 9.95637 6.66863 10.225 7 10.225C7.33137 10.225 7.6 9.95637 7.6 9.625L6.4 9.625ZM4.375 7.6H9.625V6.4H4.375V7.6ZM6.4 4.375L6.4 9.625L7.6 9.625L7.6 4.375L6.4 4.375ZM-1.2 7V12.25H1.2V7H-1.2ZM1.75 15.2H7V12.8H1.75V15.2ZM7 15.2C8.61599 15.2 9.9487 15.2025 11.0003 15.0612C12.0865 14.9151 13.0507 14.5961 13.8234 13.8234L12.1263 12.1263C11.8739 12.3788 11.5006 12.5723 10.6806 12.6826C9.826 12.7975 8.68384 12.8 7 12.8V15.2ZM12.8 7C12.8 8.68384 12.7975 9.826 12.6826 10.6806C12.5723 11.5006 12.3788 11.8739 12.1263 12.1263L13.8234 13.8234C14.5961 13.0507 14.9151 12.0865 15.0612 11.0003C15.2025 9.9487 15.2 8.61599 15.2 7H12.8ZM-1.2 12.25C-1.2 12.6286 -1.20255 13.0332 -1.15726 13.37C-1.10734 13.7414 -0.98051 14.204 -0.592247 14.5922L1.10481 12.8952C1.23679 13.0272 1.23548 13.1554 1.22133 13.0502C1.21373 12.9937 1.20718 12.9061 1.20362 12.7651C1.20008 12.6247 1.2 12.4607 1.2 12.25H-1.2ZM1.75 12.8C1.5393 12.8 1.37532 12.7999 1.23489 12.7964C1.09385 12.7928 1.00633 12.7863 0.949785 12.7787C0.844576 12.7645 0.972828 12.7632 1.10481 12.8952L-0.592247 14.5922C-0.203983 14.9805 0.258649 15.1073 0.62999 15.1573C0.96681 15.2025 1.37144 15.2 1.75 15.2V12.8ZM7 -1.2C5.38401 -1.2 4.0513 -1.20255 2.99965 -1.06116C1.91349 -0.915128 0.949284 -0.596088 0.176598 0.176598L1.87365 1.87365C2.12609 1.62121 2.49941 1.42769 3.31945 1.31744C4.174 1.20255 5.31616 1.2 7 1.2V-1.2ZM1.2 7C1.2 5.31616 1.20255 4.174 1.31744 3.31945C1.42769 2.49941 1.62121 2.12609 1.87365 1.87365L0.176598 0.176598C-0.596088 0.949284 -0.915128 1.91349 -1.06116 2.99965C-1.20255 4.0513 -1.2 5.38401 -1.2 7H1.2ZM7 1.2C8.68384 1.2 9.826 1.20255 10.6806 1.31744C11.5006 1.42769 11.8739 1.62121 12.1263 1.87365L13.8234 0.176598C13.0507 -0.596088 12.0865 -0.915128 11.0003 -1.06116C9.9487 -1.20255 8.61599 -1.2 7 -1.2V1.2ZM15.2 7C15.2 5.38401 15.2025 4.0513 15.0612 2.99965C14.9151 1.91349 14.5961 0.949284 13.8234 0.176598L12.1263 1.87365C12.3788 2.12609 12.5723 2.49941 12.6826 3.31945C12.7975 4.174 12.8 5.31616 12.8 7H15.2Z" fill="#72D772" mask="url(#path-1-inside-1_421_388)"/>
</svg>
