<svg width="16" height="16" viewBox="0 0 16 16" fill="none" xmlns="http://www.w3.org/2000/svg">
<path opacity="0.6" d="M9.40725 15C9.40725 15.3314 9.67588 15.6 10.0073 15.6C10.3386 15.6 10.6073 15.3314 10.6073 15H9.40725ZM5.39275 15C5.39275 15.3314 5.66138 15.6 5.99275 15.6C6.32412 15.6 6.59275 15.3314 6.59275 15H5.39275ZM2.85002 14.5444L3.26749 14.1134L3.26749 14.1134L2.85002 14.5444ZM13.15 14.5444L12.7325 14.1134L12.7325 14.1134L13.15 14.5444ZM9.72464 7.22181L9.7112 7.82166L9.72464 7.22181ZM8.17046 5.87963L8.76177 5.7779L8.76177 5.77789L8.17046 5.87963ZM8.18434 5.95781L8.77306 5.84202L8.18434 5.95781ZM7.82954 5.87963L7.23823 5.77789L7.23823 5.7779L7.82954 5.87963ZM7.81566 5.95781L7.22694 5.84202L7.81566 5.95781ZM6.27536 7.22181L6.2888 7.82166L6.27536 7.22181ZM11.4426 5.87963L10.8513 5.77789L10.8513 5.7779L11.4426 5.87963ZM11.4287 5.95781L10.84 5.84202L11.4287 5.95781ZM9.88842 7.22181L9.90186 7.82166L9.88842 7.22181ZM4.5574 5.87963L3.96609 5.98137L3.96609 5.98137L4.5574 5.87963ZM4.57129 5.95781L5.16001 5.84202L4.57129 5.95781ZM6.11158 7.22181L6.09814 7.82166L6.11158 7.22181ZM4.28196 5.49911L3.69064 5.39737L4.28196 5.49911ZM4.32173 5.31662L3.83977 4.95925L4.32173 5.31662ZM4.49193 5.49911L5.08325 5.39737L5.08325 5.39737L4.49193 5.49911ZM4.45216 5.31662L4.93412 4.95925L4.45216 5.31662ZM13.0105 7.18166L12.8784 7.76694L13.0105 7.18166ZM11.718 5.49911L11.1267 5.60084L11.718 5.49911ZM11.8921 6.26386L11.3407 6.5005L11.3407 6.5005L11.8921 6.26386ZM11.6783 5.31662L12.1602 4.95925L11.6783 5.31662ZM11.5081 5.49911L12.0994 5.60085L12.0994 5.60084L11.5081 5.49911ZM11.5478 5.31662L11.0659 4.95925L11.5478 5.31662ZM2.9895 7.18166L3.12158 7.76694L2.9895 7.18166ZM4.10793 6.26386L4.65929 6.5005L4.65929 6.5005L4.10793 6.26386ZM7.89501 5.49911L8.48632 5.60085L8.48632 5.60084L7.89501 5.49911ZM7.93479 5.31662L7.45283 4.95925L7.93479 5.31662ZM8.10499 5.49911L7.51368 5.60084L7.51368 5.60084L8.10499 5.49911ZM8.06521 5.31662L8.54717 4.95925L8.06521 5.31662ZM1.10922 5.92285L1.69019 6.07278L1.10922 5.92285ZM1.00117 6.49715L1.5997 6.45518L1.00117 6.49715ZM1.55516 7.18448L1.73454 6.61192L1.73454 6.61192L1.55516 7.18448ZM14.8908 5.92285L15.4717 5.77292L15.4717 5.77292L14.8908 5.92285ZM14.9988 6.49715L14.4003 6.45518L14.9988 6.49715ZM14.4448 7.18448L14.2655 6.61192L14.2655 6.61192L14.4448 7.18448ZM13.9244 2.17828L13.3434 2.32821L13.3434 2.32821L13.9244 2.17828ZM2.07561 2.17828L1.49464 2.02834L2.07561 2.17828ZM6.79565 10.9333H9.20435V9.73333H6.79565V10.9333ZM9.40725 11.1111V15H10.6073V11.1111H9.40725ZM5.39275 11.1111V15H6.59275V11.1111H5.39275ZM9.20435 10.9333C9.33453 10.9333 9.40725 11.0308 9.40725 11.1111H10.6073C10.6073 10.3323 9.96103 9.73333 9.20435 9.73333V10.9333ZM6.79565 9.73333C6.03897 9.73333 5.39275 10.3323 5.39275 11.1111H6.59275C6.59275 11.0308 6.66547 10.9333 6.79565 10.9333V9.73333ZM13.0203 7.22222V11.8889H14.2203V7.22222H13.0203ZM10.4087 14.4H5.5913V15.6H10.4087V14.4ZM2.97969 11.8889V7.22222H1.77969V11.8889H2.97969ZM5.5913 14.4C4.81787 14.4 4.29629 14.3988 3.90678 14.3481C3.53263 14.2993 3.37193 14.2146 3.26749 14.1134L2.43255 14.9753C2.79843 15.3298 3.25139 15.4729 3.7518 15.538C4.23686 15.6012 4.85076 15.6 5.5913 15.6V14.4ZM1.77969 11.8889C1.77969 12.6047 1.77833 13.2038 1.84418 13.6782C1.9127 14.1719 2.064 14.6183 2.43255 14.9753L3.26749 14.1134C3.16571 14.0148 3.08185 13.8668 3.03279 13.5133C2.98105 13.1405 2.97969 12.6397 2.97969 11.8889H1.77969ZM13.0203 11.8889C13.0203 12.6397 13.019 13.1405 12.9672 13.5133C12.9182 13.8668 12.8343 14.0148 12.7325 14.1134L13.5674 14.9753C13.936 14.6183 14.0873 14.1719 14.1558 13.6782C14.2217 13.2038 14.2203 12.6047 14.2203 11.8889H13.0203ZM10.4087 15.6C11.1492 15.6 11.7631 15.6012 12.2482 15.538C12.7486 15.4729 13.2016 15.3298 13.5674 14.9753L12.7325 14.1134C12.6281 14.2146 12.4674 14.2993 12.0932 14.3481C11.7037 14.3988 11.1821 14.4 10.4087 14.4V15.6ZM3.63346 1.6H12.3665V0.4H3.63346V1.6ZM13.3434 2.32821L14.3098 6.07279L15.4717 5.77292L14.5054 2.02835L13.3434 2.32821ZM1.69019 6.07278L2.65657 2.32821L1.49464 2.02834L0.528259 5.77292L1.69019 6.07278ZM5.14871 5.7779L5.08325 5.39737L3.90062 5.60084L3.96609 5.98137L5.14871 5.7779ZM10.9168 5.39737L10.8513 5.77789L12.0339 5.98137L12.0994 5.60085L10.9168 5.39737ZM7.3037 5.39737L7.23823 5.77789L8.42085 5.98137L8.48632 5.60085L7.3037 5.39737ZM8.76177 5.77789L8.6963 5.39737L7.51368 5.60084L7.57915 5.98137L8.76177 5.77789ZM9.80653 6.62222C9.76123 6.62222 9.74827 6.62219 9.73808 6.62196L9.7112 7.82166C9.73814 7.82226 9.7674 7.82222 9.80653 7.82222V6.62222ZM7.57915 5.98137C7.58553 6.01846 7.59043 6.04719 7.59562 6.0736L8.77306 5.84202C8.77131 5.83309 8.76927 5.82148 8.76177 5.7779L7.57915 5.98137ZM9.73808 6.62196C9.25015 6.61102 8.85797 6.2737 8.77306 5.84202L7.59562 6.0736C7.79409 7.08266 8.6855 7.79868 9.7112 7.82166L9.73808 6.62196ZM7.23823 5.7779C7.23073 5.82148 7.22869 5.83309 7.22694 5.84202L8.40438 6.0736C8.40957 6.04719 8.41447 6.01846 8.42086 5.98137L7.23823 5.7779ZM6.19347 7.82222C6.2326 7.82222 6.26186 7.82226 6.2888 7.82166L6.26192 6.62196C6.25174 6.62219 6.23878 6.62222 6.19347 6.62222V7.82222ZM7.22694 5.84202C7.14203 6.2737 6.74985 6.61102 6.26192 6.62196L6.2888 7.82166C7.3145 7.79867 8.20591 7.08266 8.40438 6.0736L7.22694 5.84202ZM10.8513 5.7779C10.8438 5.8215 10.8417 5.8331 10.84 5.84202L12.0174 6.0736C12.0226 6.04718 12.0275 6.01844 12.0339 5.98137L10.8513 5.7779ZM9.80653 7.82222C9.84566 7.82222 9.87492 7.82226 9.90186 7.82166L9.87498 6.62196C9.86479 6.62219 9.85183 6.62222 9.80653 6.62222V7.82222ZM10.84 5.84202C10.7551 6.2737 10.3629 6.61102 9.87498 6.62196L9.90186 7.82166C10.9276 7.79867 11.819 7.08266 12.0174 6.0736L10.84 5.84202ZM3.96609 5.98137C3.97248 6.01848 3.97737 6.04719 3.98257 6.0736L5.16001 5.84202C5.15825 5.83309 5.15621 5.82146 5.14871 5.7779L3.96609 5.98137ZM6.19347 6.62222C6.14817 6.62222 6.13521 6.62219 6.12502 6.62196L6.09814 7.82166C6.12508 7.82226 6.15434 7.82222 6.19347 7.82222V6.62222ZM3.98257 6.0736C4.18103 7.08266 5.07245 7.79867 6.09814 7.82166L6.12502 6.62196C5.6371 6.61102 5.24491 6.2737 5.16001 5.84202L3.98257 6.0736ZM4.87327 5.60084C4.87817 5.57234 4.88205 5.54982 4.88545 5.53075C4.88891 5.51135 4.8911 5.49986 4.89249 5.49317C4.89431 5.48439 4.89291 5.49281 4.88798 5.50914C4.88538 5.51776 4.87958 5.53601 4.86965 5.55932C4.8645 5.57141 4.85718 5.58735 4.84727 5.60565C4.8375 5.62368 4.82331 5.64753 4.80369 5.67399L3.83977 4.95925C3.77099 5.052 3.74456 5.14453 3.73926 5.16209C3.72885 5.19653 3.7218 5.22869 3.71745 5.2497C3.70869 5.29197 3.69945 5.34621 3.69064 5.39737L4.87327 5.60084ZM5.08325 5.39737C5.07444 5.34621 5.0652 5.29197 5.05644 5.2497C5.05209 5.22869 5.04503 5.19653 5.03463 5.16209C5.02932 5.14453 5.00289 5.052 4.93412 4.95925L3.9702 5.67399C3.95058 5.64753 3.93639 5.62368 3.92662 5.60565C3.91671 5.58735 3.90939 5.57141 3.90424 5.55933C3.89431 5.53601 3.88851 5.51776 3.88591 5.50914C3.88098 5.49281 3.87958 5.48439 3.8814 5.49317C3.88278 5.49986 3.88498 5.51135 3.88844 5.53075C3.89184 5.54982 3.89572 5.57234 3.90062 5.60084L5.08325 5.39737ZM4.80369 5.67399C4.59585 5.95429 4.17804 5.95429 3.9702 5.67399L4.93412 4.95925C4.6622 4.59254 4.11169 4.59254 3.83977 4.95925L4.80369 5.67399ZM13.8323 6.62222C13.3723 6.62222 13.2408 6.61854 13.1426 6.59637L12.8784 7.76694C13.1397 7.8259 13.4363 7.82222 13.8323 7.82222V6.62222ZM11.1267 5.60084C11.19 5.96846 11.235 6.25429 11.3407 6.5005L12.4434 6.02721C12.4074 5.94324 12.3837 5.8293 12.3094 5.39737L11.1267 5.60084ZM13.1426 6.59637C12.8208 6.52376 12.5638 6.30775 12.4434 6.02721L11.3407 6.5005C11.6173 7.14502 12.193 7.61225 12.8784 7.76694L13.1426 6.59637ZM12.3094 5.39737C12.3006 5.34621 12.2913 5.29197 12.2826 5.2497C12.2782 5.22869 12.2711 5.19653 12.2607 5.16209C12.2554 5.14453 12.229 5.052 12.1602 4.95925L11.1963 5.67399C11.1767 5.64753 11.1625 5.62368 11.1527 5.60565C11.1428 5.58735 11.1355 5.57141 11.1304 5.55932C11.1204 5.53601 11.1146 5.51776 11.112 5.50914C11.1071 5.49281 11.1057 5.48439 11.1075 5.49317C11.1089 5.49986 11.1111 5.51135 11.1146 5.53075C11.118 5.54982 11.1218 5.57234 11.1267 5.60084L12.3094 5.39737ZM12.0994 5.60084C12.1043 5.57234 12.1082 5.54982 12.1116 5.53075C12.115 5.51135 12.1172 5.49986 12.1186 5.49317C12.1204 5.48439 12.119 5.49281 12.1141 5.50914C12.1115 5.51776 12.1057 5.53601 12.0958 5.55932C12.0906 5.57141 12.0833 5.58735 12.0734 5.60565C12.0636 5.62368 12.0494 5.64753 12.0298 5.67399L11.0659 4.95925C10.9971 5.052 10.9707 5.14453 10.9654 5.16209C10.955 5.19653 10.9479 5.22869 10.9436 5.2497C10.9348 5.29197 10.9256 5.34621 10.9168 5.39737L12.0994 5.60084ZM12.1602 4.95925C11.8883 4.59254 11.3378 4.59254 11.0659 4.95925L12.0298 5.67399C11.822 5.95429 11.4042 5.95429 11.1963 5.67399L12.1602 4.95925ZM2.16765 7.82222C2.56375 7.82222 2.8603 7.8259 3.12158 7.76694L2.85742 6.59637C2.7592 6.61854 2.62768 6.62222 2.16765 6.62222V7.82222ZM3.69064 5.39737C3.61633 5.8293 3.59261 5.94324 3.55657 6.02721L4.65929 6.5005C4.76496 6.25429 4.81002 5.96846 4.87327 5.60084L3.69064 5.39737ZM3.12158 7.76694C3.80703 7.61225 4.38266 7.14502 4.65929 6.5005L3.55657 6.02721C3.43616 6.30775 3.1792 6.52376 2.85742 6.59637L3.12158 7.76694ZM8.48632 5.60084C8.49123 5.57234 8.49511 5.54982 8.4985 5.53075C8.50196 5.51135 8.50416 5.49986 8.50555 5.49317C8.50737 5.48439 8.50597 5.49281 8.50104 5.50914C8.49843 5.51776 8.49264 5.53601 8.4827 5.55932C8.47756 5.57141 8.47024 5.58735 8.46032 5.60565C8.45055 5.62368 8.43637 5.64753 8.41675 5.67399L7.45283 4.95925C7.38405 5.052 7.35762 5.14453 7.35232 5.16209C7.34191 5.19653 7.33486 5.22869 7.3305 5.2497C7.32175 5.29197 7.3125 5.34621 7.3037 5.39737L8.48632 5.60084ZM8.6963 5.39737C8.6875 5.34621 8.67825 5.29197 8.6695 5.2497C8.66514 5.22869 8.65809 5.19653 8.64768 5.16209C8.64238 5.14453 8.61595 5.052 8.54717 4.95925L7.58325 5.67399C7.56363 5.64753 7.54945 5.62368 7.53968 5.60565C7.52976 5.58735 7.52245 5.57141 7.5173 5.55933C7.50736 5.53601 7.50157 5.51776 7.49896 5.50914C7.49403 5.49281 7.49263 5.48439 7.49445 5.49317C7.49584 5.49986 7.49804 5.51135 7.5015 5.53075C7.5049 5.54982 7.50877 5.57234 7.51368 5.60084L8.6963 5.39737ZM8.41675 5.67399C8.20891 5.95429 7.79109 5.95429 7.58325 5.67399L8.54717 4.95925C8.27526 4.59254 7.72474 4.59254 7.45283 4.95925L8.41675 5.67399ZM0.528259 5.77292C0.490989 5.91733 0.457016 6.04819 0.434778 6.15791C0.412216 6.26923 0.392803 6.39882 0.402639 6.53911L1.5997 6.45518C1.60096 6.47312 1.59669 6.4662 1.61086 6.39628C1.62536 6.32477 1.6497 6.22966 1.69019 6.07278L0.528259 5.77292ZM2.16765 6.62222C1.99767 6.62222 1.89178 6.62206 1.8127 6.61821C1.73433 6.6144 1.72262 6.60819 1.73454 6.61192L1.37579 7.75704C1.50817 7.79852 1.63869 7.81117 1.75445 7.8168C1.86949 7.82239 2.00961 7.82222 2.16765 7.82222V6.62222ZM0.402639 6.53911C0.442805 7.11203 0.83698 7.58824 1.37579 7.75704L1.73454 6.61192C1.64863 6.58501 1.60402 6.51682 1.5997 6.45518L0.402639 6.53911ZM14.3098 6.07279C14.3503 6.22966 14.3746 6.32477 14.3891 6.39628C14.4033 6.4662 14.399 6.47311 14.4003 6.45518L15.5974 6.53911C15.6072 6.39882 15.5878 6.26923 15.5652 6.15791C15.543 6.04819 15.509 5.91734 15.4717 5.77292L14.3098 6.07279ZM13.8323 7.82222C13.9904 7.82222 14.1305 7.82239 14.2456 7.8168C14.3613 7.81117 14.4918 7.79852 14.6242 7.75704L14.2655 6.61192C14.2774 6.60819 14.2657 6.6144 14.1873 6.61821C14.1082 6.62206 14.0023 6.62222 13.8323 6.62222V7.82222ZM14.4003 6.45518C14.396 6.51682 14.3514 6.58501 14.2655 6.61192L14.6242 7.75704C15.163 7.58824 15.5572 7.11203 15.5974 6.53911L14.4003 6.45518ZM12.3665 1.6C12.6818 1.6 12.8669 1.60094 13.0021 1.61661C13.0637 1.62374 13.0963 1.63221 13.1124 1.63767C13.1198 1.6402 13.1233 1.64195 13.1243 1.64244C13.1251 1.64286 13.1252 1.643 13.1256 1.64327L13.8495 0.68619C13.6229 0.514801 13.3752 0.451798 13.1402 0.424577C12.92 0.399063 12.6534 0.4 12.3665 0.4V1.6ZM14.5054 2.02835C14.4361 1.75987 14.3716 1.50569 14.2912 1.30148C14.2045 1.0809 14.0779 0.858943 13.8495 0.68619L13.1256 1.64327C13.1259 1.6435 13.1259 1.64353 13.1258 1.6434C13.1256 1.64327 13.1256 1.64319 13.1256 1.64327C13.1257 1.64335 13.1261 1.64381 13.1269 1.6448C13.1277 1.64581 13.129 1.64752 13.1308 1.65013C13.1383 1.66117 13.1533 1.68685 13.1745 1.74067C13.2217 1.86058 13.2667 2.0308 13.3434 2.32821L14.5054 2.02835ZM3.63346 0.4C3.34656 0.4 3.08005 0.399063 2.85979 0.424577C2.6248 0.451798 2.37712 0.514801 2.15052 0.68619L2.8744 1.64327C2.87476 1.643 2.87494 1.64286 2.87575 1.64244C2.87668 1.64195 2.88019 1.6402 2.88764 1.63767C2.90374 1.63221 2.93632 1.62374 2.99788 1.61661C3.13314 1.60094 3.31823 1.6 3.63346 1.6V0.4ZM2.65657 2.32821C2.73333 2.0308 2.77834 1.86058 2.8255 1.74066C2.84666 1.68685 2.8617 1.66117 2.8692 1.65013C2.87097 1.64752 2.87227 1.64581 2.87307 1.6448C2.87386 1.64381 2.87429 1.64335 2.87437 1.64327C2.87444 1.64319 2.87437 1.64327 2.87422 1.6434C2.87407 1.64353 2.87409 1.6435 2.8744 1.64327L2.15052 0.68619C1.92212 0.858943 1.7955 1.0809 1.70875 1.30148C1.62844 1.50569 1.56393 1.75987 1.49464 2.02834L2.65657 2.32821Z" fill="#424848"/>
</svg>
