<svg width="16" height="16" viewBox="0 0 16 16" fill="none" xmlns="http://www.w3.org/2000/svg">
<path d="M5.375 7.4C5.04363 7.4 4.775 7.66863 4.775 8C4.775 8.33137 5.04363 8.6 5.375 8.6V7.4ZM10.625 8.6C10.9564 8.6 11.225 8.33137 11.225 8C11.225 7.66863 10.9564 7.4 10.625 7.4V8.6ZM8.6 5.375C8.6 5.04363 8.33137 4.775 8 4.775C7.66863 4.775 7.4 5.04363 7.4 5.375L8.6 5.375ZM7.4 10.625C7.4 10.9564 7.66863 11.225 8 11.225C8.33137 11.225 8.6 10.9564 8.6 10.625L7.4 10.625ZM0.4 8V13.25H1.6V8H0.4ZM2.75 15.6H8V14.4H2.75V15.6ZM8 15.6C9.63295 15.6 10.918 15.6013 11.9204 15.4665C12.94 15.3294 13.7565 15.0418 14.3991 14.3991L13.5506 13.5506C13.1681 13.9331 12.6471 14.158 11.7605 14.2772C10.8567 14.3987 9.66688 14.4 8 14.4V15.6ZM14.4 8C14.4 9.66688 14.3987 10.8567 14.2772 11.7605C14.158 12.6471 13.9331 13.1681 13.5506 13.5506L14.3991 14.3991C15.0418 13.7565 15.3294 12.94 15.4665 11.9204C15.6013 10.918 15.6 9.63295 15.6 8H14.4ZM0.4 13.25C0.4 13.6455 0.398726 14.0025 0.437386 14.2901C0.478366 14.5949 0.573815 14.9098 0.832017 15.168L1.68055 14.3195C1.67684 14.3158 1.67128 14.3101 1.66299 14.2899C1.65274 14.265 1.63844 14.2176 1.62668 14.1302C1.60127 13.9412 1.6 13.6794 1.6 13.25H0.4ZM2.75 14.4C2.32056 14.4 2.05884 14.3987 1.86984 14.3733C1.78238 14.3616 1.735 14.3473 1.71007 14.337C1.68993 14.3287 1.68425 14.3232 1.68055 14.3195L0.832017 15.168C1.09022 15.4262 1.40513 15.5216 1.70994 15.5626C1.99749 15.6013 2.35448 15.6 2.75 15.6V14.4ZM8 0.4C6.36705 0.4 5.08197 0.398726 4.0796 0.533491C3.05997 0.670577 2.24349 0.958238 1.60086 1.60086L2.44939 2.44939C2.83189 2.06689 3.35293 1.84199 4.2395 1.72279C5.14332 1.60127 6.33312 1.6 8 1.6V0.4ZM1.6 8C1.6 6.33312 1.60127 5.14332 1.72279 4.2395C1.84199 3.35293 2.06689 2.83189 2.44939 2.44939L1.60086 1.60086C0.958238 2.24349 0.670577 3.05997 0.533491 4.0796C0.398726 5.08197 0.4 6.36705 0.4 8H1.6ZM8 1.6C9.66688 1.6 10.8567 1.60127 11.7605 1.72279C12.6471 1.84199 13.1681 2.06689 13.5506 2.44939L14.3991 1.60086C13.7565 0.958238 12.94 0.670577 11.9204 0.533491C10.918 0.398726 9.63295 0.4 8 0.4V1.6ZM15.6 8C15.6 6.36705 15.6013 5.08197 15.4665 4.0796C15.3294 3.05997 15.0418 2.24349 14.3991 1.60086L13.5506 2.44939C13.9331 2.83189 14.158 3.35293 14.2772 4.2395C14.3987 5.14332 14.4 6.33312 14.4 8H15.6ZM5.375 8.6H10.625V7.4H5.375V8.6ZM7.4 5.375L7.4 10.625L8.6 10.625L8.6 5.375L7.4 5.375Z" fill="#424848" fill-opacity="0.62"/>
</svg>
