<svg width="16" height="18" viewBox="0 0 16 18" fill="none" xmlns="http://www.w3.org/2000/svg">
<g opacity="0.6">
<path d="M11.5 2.6842C12.9045 2.6842 13.6067 2.6842 14.1111 2.96804C14.3295 3.09092 14.517 3.24882 14.6629 3.43272C15 3.85751 15 4.44887 15 5.63157V13.6316C15 15.2195 15 16.0134 14.4142 16.5067C13.8284 17 12.8856 17 11 17H5C3.11438 17 2.17157 17 1.58579 16.5067C1 16.0134 1 15.2195 1 13.6316V5.63157C1 4.44887 1 3.85751 1.33706 3.43272C1.48298 3.24882 1.67048 3.09092 1.88886 2.96804C2.39331 2.6842 3.09554 2.6842 4.5 2.6842" stroke="#424848" stroke-width="1.2"/>
<path d="M5 2.68421C5 1.75405 5.89543 1 7 1H9C10.1046 1 11 1.75405 11 2.68421C11 3.61437 10.1046 4.36842 9 4.36842H7C5.89543 4.36842 5 3.61437 5 2.68421Z" stroke="#424848" stroke-width="1.2"/>
<path d="M5 8.57895L11 8.57895" stroke="#424848" stroke-width="1.2" stroke-linecap="round"/>
<path d="M5 11.9474L9 11.9474" stroke="#424848" stroke-width="1.2" stroke-linecap="round"/>
</g>
</svg>
