<svg width="14" height="14" viewBox="0 0 14 14" fill="none" xmlns="http://www.w3.org/2000/svg">
<path opacity="0.6" fill-rule="evenodd" clip-rule="evenodd" d="M11.2113 0.288665C11.0486 0.125946 10.7848 0.125946 10.6221 0.288665L1.92879 8.98193C1.85383 9.05689 1.79385 9.14547 1.75209 9.24292L0.0337017 13.2525C-0.033413 13.4091 0.0015764 13.5908 0.122051 13.7113C0.242526 13.8317 0.424211 13.8667 0.580812 13.7996L4.59039 12.0812C4.68784 12.0395 4.77642 11.9795 4.85138 11.9045L13.5446 3.21125C13.6228 3.13311 13.6667 3.02713 13.6667 2.91663C13.6667 2.80612 13.6228 2.70014 13.5446 2.622L11.2113 0.288665ZM2.51805 9.57118L10.9167 1.17255L12.6608 2.91663L4.26213 11.3153L2.54937 12.0493L1.78401 11.2839L2.51805 9.57118Z" fill="#424848"/>
</svg>
