<svg width="14" height="14" viewBox="0 0 14 14" fill="none" xmlns="http://www.w3.org/2000/svg">
<path fill-rule="evenodd" clip-rule="evenodd" d="M11.1091 0.674287C10.9545 0.519704 10.7038 0.519704 10.5493 0.674287L2.29067 8.93288C2.21945 9.0041 2.16248 9.08825 2.1228 9.18082L0.49033 12.9899C0.426571 13.1387 0.459811 13.3113 0.574261 13.4257C0.688712 13.5402 0.861313 13.5734 1.01008 13.5097L4.81918 11.8772C4.91176 11.8375 4.99591 11.7806 5.06712 11.7093L13.3257 3.45075C13.4 3.37651 13.4417 3.27583 13.4417 3.17085C13.4417 3.06587 13.4 2.96519 13.3257 2.89095L11.1091 0.674287ZM2.85046 9.49268L10.8292 1.51398L12.486 3.17085L4.50733 11.1496L2.88021 11.8469L2.15312 11.1198L2.85046 9.49268Z" fill="#424848"/>
</svg>
